<mxfile host="Electron" modified="2024-04-29T01:59:24.438Z" agent="Mozilla/5.0 (X11; Linux x86_64) AppleWebKit/537.36 (KHTML, like Gecko) draw.io/24.1.0 Chrome/122.0.6261.156 Electron/29.3.0 Safari/537.36" etag="Ss26bQg8_D9Pf2-DH0ij" version="24.1.0" type="device">
  <diagram id="R2lEEEUBdFMjLlhIrx00" name="Page-1">
    <mxGraphModel dx="777" dy="1736" grid="1" gridSize="10" guides="1" tooltips="1" connect="1" arrows="1" fold="1" page="1" pageScale="1" pageWidth="850" pageHeight="1100" background="#FFFFFF" math="0" shadow="0" extFonts="Permanent Marker^https://fonts.googleapis.com/css?family=Permanent+Marker">
      <root>
        <mxCell id="0" />
        <object label="background" id="v2eCrjNbCVR9gLbqSEYK-68">
          <mxCell style="locked=1;" parent="0" visible="0" />
        </object>
        <mxCell id="v2eCrjNbCVR9gLbqSEYK-70" value="" style="rounded=0;whiteSpace=wrap;html=1;" parent="v2eCrjNbCVR9gLbqSEYK-68" vertex="1">
          <mxGeometry x="40" width="1760" height="650" as="geometry" />
        </mxCell>
        <object label="main" id="1">
          <mxCell style="" parent="0" />
        </object>
        <mxCell id="v2eCrjNbCVR9gLbqSEYK-106" value="" style="swimlane;startSize=0;swimlaneFillColor=#CCCCCC;shadow=1;" parent="1" vertex="1">
          <mxGeometry x="80" y="-790" width="90" height="90" as="geometry" />
        </mxCell>
        <mxCell id="v2eCrjNbCVR9gLbqSEYK-40" value="Trait" style="rounded=0;whiteSpace=wrap;html=1;fillColor=#fa6800;strokeColor=#C73500;fontColor=#000000;shape=parallelogram;fixedSize=1;perimeter=parallelogramPerimeter;flipH=0;flipV=0;" parent="v2eCrjNbCVR9gLbqSEYK-106" vertex="1">
          <mxGeometry x="12.5" y="50" width="65" height="20" as="geometry" />
        </mxCell>
        <mxCell id="v2eCrjNbCVR9gLbqSEYK-41" value="Struct" style="rounded=1;whiteSpace=wrap;fillColor=#1ba1e2;strokeColor=#006EAF;fontColor=#ffffff;verticalAlign=middle;html=1;spacing=2;flipH=0;flipV=0;" parent="v2eCrjNbCVR9gLbqSEYK-106" vertex="1">
          <mxGeometry x="20" y="20" width="50" height="20" as="geometry" />
        </mxCell>
        <mxCell id="8NO0AHSbTcHH3xZStWIT-26" value="Operation and Constructor Trait Relations When&amp;nbsp;&lt;font color=&quot;#26a269&quot;&gt;Abstracted&lt;/font&gt;" style="swimlane;whiteSpace=wrap;html=1;" parent="1" vertex="1">
          <mxGeometry x="70" y="170" width="560" height="430" as="geometry">
            <mxRectangle x="70" y="170" width="360" height="30" as="alternateBounds" />
          </mxGeometry>
        </mxCell>
        <mxCell id="v2eCrjNbCVR9gLbqSEYK-79" value="&lt;div&gt;Line&lt;/div&gt;" style="rounded=1;whiteSpace=wrap;html=1;fillColor=#1ba1e2;strokeColor=#006EAF;fontColor=#ffffff;" parent="8NO0AHSbTcHH3xZStWIT-26" vertex="1">
          <mxGeometry x="240" y="320" width="80" height="40" as="geometry" />
        </mxCell>
        <mxCell id="v2eCrjNbCVR9gLbqSEYK-80" style="edgeStyle=orthogonalEdgeStyle;rounded=1;orthogonalLoop=1;jettySize=auto;html=1;noEdgeStyle=1;orthogonal=0;" parent="8NO0AHSbTcHH3xZStWIT-26" source="v2eCrjNbCVR9gLbqSEYK-82" target="v2eCrjNbCVR9gLbqSEYK-79" edge="1">
          <mxGeometry relative="1" as="geometry">
            <Array as="points" />
          </mxGeometry>
        </mxCell>
        <mxCell id="v2eCrjNbCVR9gLbqSEYK-81" value="&lt;div&gt;Newtype&lt;/div&gt;&lt;div&gt;(&lt;font color=&quot;#26a269&quot;&gt;abstraction&lt;/font&gt;)&lt;/div&gt;" style="edgeLabel;html=1;align=center;verticalAlign=middle;resizable=0;points=[];rounded=1;" parent="v2eCrjNbCVR9gLbqSEYK-80" vertex="1" connectable="0">
          <mxGeometry relative="1" as="geometry">
            <mxPoint as="offset" />
          </mxGeometry>
        </mxCell>
        <mxCell id="v2eCrjNbCVR9gLbqSEYK-82" value="&lt;div&gt;DirectedLine&lt;/div&gt;" style="rounded=1;whiteSpace=wrap;html=1;fillColor=#1ba1e2;strokeColor=#006EAF;fontColor=#ffffff;" parent="8NO0AHSbTcHH3xZStWIT-26" vertex="1">
          <mxGeometry x="240.0011111111112" y="200" width="80" height="40" as="geometry" />
        </mxCell>
        <mxCell id="v2eCrjNbCVR9gLbqSEYK-83" value="TwoDifferentPoints" style="rounded=1;whiteSpace=wrap;html=1;fillColor=#1ba1e2;strokeColor=#006EAF;fontColor=#ffffff;" parent="8NO0AHSbTcHH3xZStWIT-26" vertex="1">
          <mxGeometry x="220" y="80" width="120" height="40" as="geometry" />
        </mxCell>
        <mxCell id="v2eCrjNbCVR9gLbqSEYK-84" value="" style="endArrow=classic;html=1;rounded=1;noEdgeStyle=1;orthogonal=0;" parent="8NO0AHSbTcHH3xZStWIT-26" source="v2eCrjNbCVR9gLbqSEYK-83" target="v2eCrjNbCVR9gLbqSEYK-82" edge="1">
          <mxGeometry width="50" height="50" relative="1" as="geometry">
            <mxPoint x="310" y="615" as="sourcePoint" />
            <mxPoint x="360" y="565" as="targetPoint" />
            <Array as="points" />
          </mxGeometry>
        </mxCell>
        <mxCell id="v2eCrjNbCVR9gLbqSEYK-85" value="&lt;div&gt;Newtype&lt;/div&gt;&lt;div&gt;(&lt;font color=&quot;#26a269&quot;&gt;abstraction&lt;/font&gt;)&lt;/div&gt;" style="edgeLabel;html=1;align=center;verticalAlign=middle;resizable=0;points=[];rounded=1;" parent="v2eCrjNbCVR9gLbqSEYK-84" vertex="1" connectable="0">
          <mxGeometry relative="1" as="geometry">
            <mxPoint as="offset" />
          </mxGeometry>
        </mxCell>
        <mxCell id="v2eCrjNbCVR9gLbqSEYK-86" value="" style="endArrow=classic;html=1;rounded=1;orthogonal=0;" parent="8NO0AHSbTcHH3xZStWIT-26" source="v2eCrjNbCVR9gLbqSEYK-79" target="v2eCrjNbCVR9gLbqSEYK-94" edge="1">
          <mxGeometry width="50" height="50" relative="1" as="geometry">
            <mxPoint x="370" y="330" as="sourcePoint" />
            <mxPoint x="420" y="280" as="targetPoint" />
          </mxGeometry>
        </mxCell>
        <mxCell id="v2eCrjNbCVR9gLbqSEYK-87" value="impl" style="edgeLabel;html=1;align=center;verticalAlign=middle;resizable=0;points=[];rounded=1;" parent="v2eCrjNbCVR9gLbqSEYK-86" vertex="1" connectable="0">
          <mxGeometry relative="1" as="geometry">
            <mxPoint as="offset" />
          </mxGeometry>
        </mxCell>
        <mxCell id="v2eCrjNbCVR9gLbqSEYK-88" value="" style="endArrow=classic;html=1;rounded=1;orthogonal=0;" parent="8NO0AHSbTcHH3xZStWIT-26" source="v2eCrjNbCVR9gLbqSEYK-82" target="v2eCrjNbCVR9gLbqSEYK-95" edge="1">
          <mxGeometry width="50" height="50" relative="1" as="geometry">
            <mxPoint x="270" y="368" as="sourcePoint" />
            <mxPoint x="400" y="412" as="targetPoint" />
          </mxGeometry>
        </mxCell>
        <mxCell id="v2eCrjNbCVR9gLbqSEYK-89" value="impl" style="edgeLabel;html=1;align=center;verticalAlign=middle;resizable=0;points=[];rounded=1;" parent="v2eCrjNbCVR9gLbqSEYK-88" vertex="1" connectable="0">
          <mxGeometry relative="1" as="geometry">
            <mxPoint as="offset" />
          </mxGeometry>
        </mxCell>
        <mxCell id="v2eCrjNbCVR9gLbqSEYK-90" value="" style="endArrow=classic;html=1;rounded=1;orthogonal=0;" parent="8NO0AHSbTcHH3xZStWIT-26" source="v2eCrjNbCVR9gLbqSEYK-79" target="v2eCrjNbCVR9gLbqSEYK-98" edge="1">
          <mxGeometry width="50" height="50" relative="1" as="geometry">
            <mxPoint x="306" y="310" as="sourcePoint" />
            <mxPoint x="240" y="260" as="targetPoint" />
          </mxGeometry>
        </mxCell>
        <mxCell id="v2eCrjNbCVR9gLbqSEYK-91" value="impl" style="edgeLabel;html=1;align=center;verticalAlign=middle;resizable=0;points=[];rounded=1;" parent="v2eCrjNbCVR9gLbqSEYK-90" vertex="1" connectable="0">
          <mxGeometry relative="1" as="geometry">
            <mxPoint as="offset" />
          </mxGeometry>
        </mxCell>
        <mxCell id="v2eCrjNbCVR9gLbqSEYK-92" value="" style="endArrow=classic;html=1;rounded=1;orthogonal=0;" parent="8NO0AHSbTcHH3xZStWIT-26" source="v2eCrjNbCVR9gLbqSEYK-82" target="v2eCrjNbCVR9gLbqSEYK-99" edge="1">
          <mxGeometry width="50" height="50" relative="1" as="geometry">
            <mxPoint x="290" y="250" as="sourcePoint" />
            <mxPoint x="224" y="200" as="targetPoint" />
          </mxGeometry>
        </mxCell>
        <mxCell id="v2eCrjNbCVR9gLbqSEYK-93" value="impl" style="edgeLabel;html=1;align=center;verticalAlign=middle;resizable=0;points=[];rounded=1;" parent="v2eCrjNbCVR9gLbqSEYK-92" vertex="1" connectable="0">
          <mxGeometry relative="1" as="geometry">
            <mxPoint as="offset" />
          </mxGeometry>
        </mxCell>
        <mxCell id="v2eCrjNbCVR9gLbqSEYK-94" value="&lt;div&gt;Line&lt;/div&gt;&lt;div&gt;Ops&lt;br&gt;&lt;/div&gt;" style="rounded=0;whiteSpace=wrap;html=1;fillColor=#fa6800;strokeColor=#C73500;fontColor=#000000;shape=parallelogram;fixedSize=1;perimeter=parallelogramPerimeter;" parent="8NO0AHSbTcHH3xZStWIT-26" vertex="1">
          <mxGeometry x="40" y="320" width="110" height="40" as="geometry" />
        </mxCell>
        <mxCell id="v2eCrjNbCVR9gLbqSEYK-95" value="&lt;div&gt;DirectedLine&lt;/div&gt;&lt;div&gt;Ops&lt;br&gt;&lt;/div&gt;" style="rounded=0;whiteSpace=wrap;html=1;fillColor=#fa6800;strokeColor=#C73500;fontColor=#000000;shape=parallelogram;fixedSize=1;perimeter=parallelogramPerimeter;" parent="8NO0AHSbTcHH3xZStWIT-26" vertex="1">
          <mxGeometry x="30" y="200" width="130" height="40" as="geometry" />
        </mxCell>
        <mxCell id="v2eCrjNbCVR9gLbqSEYK-96" value="" style="endArrow=classic;html=1;rounded=1;orthogonal=0;" parent="8NO0AHSbTcHH3xZStWIT-26" source="v2eCrjNbCVR9gLbqSEYK-95" target="v2eCrjNbCVR9gLbqSEYK-94" edge="1">
          <mxGeometry relative="1" as="geometry">
            <mxPoint x="610" y="90" as="sourcePoint" />
            <mxPoint x="710" y="90" as="targetPoint" />
          </mxGeometry>
        </mxCell>
        <mxCell id="v2eCrjNbCVR9gLbqSEYK-97" value="&lt;div&gt;Require&lt;/div&gt;&lt;div&gt;(simpler&lt;/div&gt;&lt;div&gt;manipulation)&lt;br&gt;&lt;/div&gt;" style="edgeLabel;resizable=0;html=1;;align=center;verticalAlign=middle;container=0;rounded=1;" parent="v2eCrjNbCVR9gLbqSEYK-96" connectable="0" vertex="1">
          <mxGeometry relative="1" as="geometry">
            <mxPoint y="-10" as="offset" />
          </mxGeometry>
        </mxCell>
        <mxCell id="v2eCrjNbCVR9gLbqSEYK-98" value="&lt;div&gt;Line&lt;/div&gt;&lt;div&gt;Constructors&lt;br&gt;&lt;/div&gt;" style="rounded=0;whiteSpace=wrap;html=1;fillColor=#fa6800;strokeColor=#C73500;fontColor=#000000;shape=parallelogram;fixedSize=1;perimeter=parallelogramPerimeter;" parent="8NO0AHSbTcHH3xZStWIT-26" vertex="1">
          <mxGeometry x="410" y="320" width="110" height="40" as="geometry" />
        </mxCell>
        <mxCell id="v2eCrjNbCVR9gLbqSEYK-99" value="&lt;div&gt;DirectedLine&lt;/div&gt;&lt;div&gt;Constructors&lt;br&gt;&lt;/div&gt;" style="rounded=0;whiteSpace=wrap;html=1;fillColor=#fa6800;strokeColor=#C73500;fontColor=#000000;shape=parallelogram;fixedSize=1;perimeter=parallelogramPerimeter;" parent="8NO0AHSbTcHH3xZStWIT-26" vertex="1">
          <mxGeometry x="395" y="200" width="140" height="40" as="geometry" />
        </mxCell>
        <mxCell id="v2eCrjNbCVR9gLbqSEYK-100" value="" style="endArrow=classic;html=1;rounded=1;orthogonal=0;" parent="8NO0AHSbTcHH3xZStWIT-26" source="v2eCrjNbCVR9gLbqSEYK-98" target="v2eCrjNbCVR9gLbqSEYK-99" edge="1">
          <mxGeometry relative="1" as="geometry">
            <mxPoint x="347" y="475" as="sourcePoint" />
            <mxPoint x="193" y="230" as="targetPoint" />
          </mxGeometry>
        </mxCell>
        <mxCell id="v2eCrjNbCVR9gLbqSEYK-101" value="&lt;div&gt;Require&lt;/div&gt;&lt;div&gt;(discard data)&lt;br&gt;&lt;/div&gt;" style="edgeLabel;resizable=0;html=1;;align=center;verticalAlign=middle;container=0;rounded=1;" parent="v2eCrjNbCVR9gLbqSEYK-100" connectable="0" vertex="1">
          <mxGeometry relative="1" as="geometry">
            <mxPoint as="offset" />
          </mxGeometry>
        </mxCell>
        <mxCell id="8NO0AHSbTcHH3xZStWIT-5" value="&lt;div&gt;TwoDifferentPoints&lt;br&gt;&lt;/div&gt;&lt;div&gt;Ops&lt;br&gt;&lt;/div&gt;" style="rounded=0;whiteSpace=wrap;html=1;fillColor=#fa6800;strokeColor=#C73500;fontColor=#000000;shape=parallelogram;fixedSize=1;perimeter=parallelogramPerimeter;" parent="8NO0AHSbTcHH3xZStWIT-26" vertex="1">
          <mxGeometry x="20" y="80" width="150" height="40" as="geometry" />
        </mxCell>
        <mxCell id="8NO0AHSbTcHH3xZStWIT-6" value="&lt;div&gt;TwoDifferentPoints&lt;br&gt;&lt;/div&gt;&lt;div&gt;Constructors&lt;br&gt;&lt;/div&gt;" style="rounded=0;whiteSpace=wrap;html=1;fillColor=#fa6800;strokeColor=#C73500;fontColor=#000000;shape=parallelogram;fixedSize=1;perimeter=parallelogramPerimeter;" parent="8NO0AHSbTcHH3xZStWIT-26" vertex="1">
          <mxGeometry x="390" y="80" width="150" height="40" as="geometry" />
        </mxCell>
        <mxCell id="8NO0AHSbTcHH3xZStWIT-7" value="" style="endArrow=classic;html=1;rounded=1;orthogonal=0;" parent="8NO0AHSbTcHH3xZStWIT-26" source="8NO0AHSbTcHH3xZStWIT-5" target="v2eCrjNbCVR9gLbqSEYK-95" edge="1">
          <mxGeometry relative="1" as="geometry">
            <mxPoint x="-40" y="130" as="sourcePoint" />
            <mxPoint x="-40" y="210" as="targetPoint" />
          </mxGeometry>
        </mxCell>
        <mxCell id="8NO0AHSbTcHH3xZStWIT-8" value="&lt;div&gt;Require&lt;/div&gt;&lt;div&gt;(simpler&lt;/div&gt;&lt;div&gt;manipulation)&lt;br&gt;&lt;/div&gt;" style="edgeLabel;resizable=0;html=1;;align=center;verticalAlign=middle;container=0;rounded=1;" parent="8NO0AHSbTcHH3xZStWIT-7" connectable="0" vertex="1">
          <mxGeometry relative="1" as="geometry">
            <mxPoint as="offset" />
          </mxGeometry>
        </mxCell>
        <mxCell id="8NO0AHSbTcHH3xZStWIT-9" value="" style="endArrow=classic;html=1;rounded=1;orthogonal=0;" parent="8NO0AHSbTcHH3xZStWIT-26" source="v2eCrjNbCVR9gLbqSEYK-99" target="8NO0AHSbTcHH3xZStWIT-6" edge="1">
          <mxGeometry relative="1" as="geometry">
            <mxPoint x="625" y="190" as="sourcePoint" />
            <mxPoint x="625" y="110" as="targetPoint" />
          </mxGeometry>
        </mxCell>
        <mxCell id="8NO0AHSbTcHH3xZStWIT-10" value="&lt;div&gt;Require&lt;/div&gt;&lt;div&gt;(discard data)&lt;br&gt;&lt;/div&gt;" style="edgeLabel;resizable=0;html=1;;align=center;verticalAlign=middle;container=0;rounded=1;" parent="8NO0AHSbTcHH3xZStWIT-9" connectable="0" vertex="1">
          <mxGeometry relative="1" as="geometry">
            <mxPoint as="offset" />
          </mxGeometry>
        </mxCell>
        <mxCell id="8NO0AHSbTcHH3xZStWIT-11" value="" style="endArrow=classic;html=1;rounded=1;orthogonal=0;" parent="8NO0AHSbTcHH3xZStWIT-26" source="v2eCrjNbCVR9gLbqSEYK-83" target="8NO0AHSbTcHH3xZStWIT-6" edge="1">
          <mxGeometry width="50" height="50" relative="1" as="geometry">
            <mxPoint x="318" y="330" as="sourcePoint" />
            <mxPoint x="432" y="250" as="targetPoint" />
          </mxGeometry>
        </mxCell>
        <mxCell id="8NO0AHSbTcHH3xZStWIT-12" value="impl" style="edgeLabel;html=1;align=center;verticalAlign=middle;resizable=0;points=[];rounded=1;" parent="8NO0AHSbTcHH3xZStWIT-11" vertex="1" connectable="0">
          <mxGeometry relative="1" as="geometry">
            <mxPoint as="offset" />
          </mxGeometry>
        </mxCell>
        <mxCell id="8NO0AHSbTcHH3xZStWIT-13" value="" style="endArrow=classic;html=1;rounded=1;orthogonal=0;" parent="8NO0AHSbTcHH3xZStWIT-26" source="v2eCrjNbCVR9gLbqSEYK-83" target="8NO0AHSbTcHH3xZStWIT-5" edge="1">
          <mxGeometry width="50" height="50" relative="1" as="geometry">
            <mxPoint x="240" y="20" as="sourcePoint" />
            <mxPoint x="170" y="20" as="targetPoint" />
          </mxGeometry>
        </mxCell>
        <mxCell id="8NO0AHSbTcHH3xZStWIT-14" value="impl" style="edgeLabel;html=1;align=center;verticalAlign=middle;resizable=0;points=[];rounded=1;" parent="8NO0AHSbTcHH3xZStWIT-13" vertex="1" connectable="0">
          <mxGeometry relative="1" as="geometry">
            <mxPoint as="offset" />
          </mxGeometry>
        </mxCell>
        <mxCell id="8NO0AHSbTcHH3xZStWIT-23" value="" style="endArrow=none;dashed=1;html=1;rounded=0;exitX=0.5;exitY=0;exitDx=0;exitDy=0;orthogonal=0;" parent="8NO0AHSbTcHH3xZStWIT-26" source="v2eCrjNbCVR9gLbqSEYK-83" edge="1">
          <mxGeometry width="50" height="50" relative="1" as="geometry">
            <mxPoint x="300" y="40" as="sourcePoint" />
            <mxPoint x="280" y="40" as="targetPoint" />
          </mxGeometry>
        </mxCell>
        <mxCell id="8NO0AHSbTcHH3xZStWIT-24" value="" style="endArrow=none;dashed=1;html=1;rounded=0;entryX=0.5;entryY=1;entryDx=0;entryDy=0;orthogonal=0;" parent="8NO0AHSbTcHH3xZStWIT-26" target="v2eCrjNbCVR9gLbqSEYK-79" edge="1">
          <mxGeometry width="50" height="50" relative="1" as="geometry">
            <mxPoint x="280" y="410" as="sourcePoint" />
            <mxPoint x="260" y="420" as="targetPoint" />
          </mxGeometry>
        </mxCell>
        <mxCell id="8NO0AHSbTcHH3xZStWIT-35" value="&lt;div&gt;Line&lt;/div&gt;" style="rounded=1;whiteSpace=wrap;html=1;fillColor=#1ba1e2;strokeColor=#006EAF;fontColor=#ffffff;" parent="1" vertex="1">
          <mxGeometry x="745" y="607.5" width="50" height="30" as="geometry" />
        </mxCell>
        <mxCell id="8NO0AHSbTcHH3xZStWIT-36" style="edgeStyle=orthogonalEdgeStyle;rounded=1;orthogonalLoop=1;jettySize=auto;html=1;noEdgeStyle=1;orthogonal=0;curved=0;jumpStyle=sharp;flowAnimation=0;shadow=0;" parent="1" source="8NO0AHSbTcHH3xZStWIT-38" target="8NO0AHSbTcHH3xZStWIT-35" edge="1">
          <mxGeometry relative="1" as="geometry">
            <Array as="points" />
            <mxPoint x="920" y="510" as="sourcePoint" />
            <mxPoint x="787.5" y="620" as="targetPoint" />
          </mxGeometry>
        </mxCell>
        <mxCell id="8NO0AHSbTcHH3xZStWIT-37" value="&lt;div&gt;Newtype&lt;/div&gt;&lt;div&gt;(&lt;font color=&quot;#26a269&quot;&gt;abstraction&lt;/font&gt;)&lt;br&gt;&lt;/div&gt;" style="edgeLabel;html=1;align=center;verticalAlign=middle;resizable=0;points=[];rounded=1;" parent="8NO0AHSbTcHH3xZStWIT-36" vertex="1" connectable="0">
          <mxGeometry relative="1" as="geometry">
            <mxPoint x="-18" y="15" as="offset" />
          </mxGeometry>
        </mxCell>
        <mxCell id="8NO0AHSbTcHH3xZStWIT-38" value="&lt;div&gt;DirectedLine&lt;/div&gt;" style="rounded=1;whiteSpace=wrap;html=1;fillColor=#1ba1e2;strokeColor=#006EAF;fontColor=#ffffff;" parent="1" vertex="1">
          <mxGeometry x="840" y="460" width="100" height="30" as="geometry" />
        </mxCell>
        <mxCell id="8NO0AHSbTcHH3xZStWIT-39" value="TwoDifferentPoints" style="rounded=1;whiteSpace=wrap;html=1;fillColor=#1ba1e2;strokeColor=#006EAF;fontColor=#ffffff;" parent="1" vertex="1">
          <mxGeometry x="830" y="273.5" width="120" height="35" as="geometry" />
        </mxCell>
        <mxCell id="8NO0AHSbTcHH3xZStWIT-40" value="" style="endArrow=classic;html=1;rounded=1;noEdgeStyle=1;orthogonal=0;" parent="1" source="8NO0AHSbTcHH3xZStWIT-39" target="8NO0AHSbTcHH3xZStWIT-38" edge="1">
          <mxGeometry width="50" height="50" relative="1" as="geometry">
            <mxPoint x="815" y="821" as="sourcePoint" />
            <mxPoint x="865" y="771" as="targetPoint" />
            <Array as="points" />
          </mxGeometry>
        </mxCell>
        <mxCell id="8NO0AHSbTcHH3xZStWIT-41" value="&lt;div&gt;Newtype&lt;/div&gt;&lt;div&gt;(&lt;font color=&quot;#26a269&quot;&gt;abstraction&lt;/font&gt;)&lt;br&gt;&lt;/div&gt;" style="edgeLabel;html=1;align=center;verticalAlign=middle;resizable=0;points=[];rounded=1;" parent="8NO0AHSbTcHH3xZStWIT-40" vertex="1" connectable="0">
          <mxGeometry relative="1" as="geometry">
            <mxPoint as="offset" />
          </mxGeometry>
        </mxCell>
        <mxCell id="8NO0AHSbTcHH3xZStWIT-42" value="HalfPlane" style="rounded=1;whiteSpace=wrap;html=1;fillColor=#1ba1e2;strokeColor=#006EAF;fontColor=#ffffff;" parent="1" vertex="1">
          <mxGeometry x="850" y="607.5" width="80" height="30" as="geometry" />
        </mxCell>
        <mxCell id="8NO0AHSbTcHH3xZStWIT-43" style="edgeStyle=orthogonalEdgeStyle;rounded=1;orthogonalLoop=1;jettySize=auto;html=1;noEdgeStyle=1;orthogonal=0;" parent="1" source="8NO0AHSbTcHH3xZStWIT-38" target="8NO0AHSbTcHH3xZStWIT-42" edge="1">
          <mxGeometry relative="1" as="geometry">
            <Array as="points" />
            <mxPoint x="795" y="456" as="sourcePoint" />
            <mxPoint x="795" y="536" as="targetPoint" />
          </mxGeometry>
        </mxCell>
        <mxCell id="8NO0AHSbTcHH3xZStWIT-44" value="&lt;div&gt;Newtype&lt;/div&gt;&lt;div&gt;(&lt;font color=&quot;#1a5fb4&quot;&gt;semantic&lt;/font&gt;)&lt;br&gt;&lt;/div&gt;" style="edgeLabel;html=1;align=center;verticalAlign=middle;resizable=0;points=[];rounded=1;" parent="8NO0AHSbTcHH3xZStWIT-43" vertex="1" connectable="0">
          <mxGeometry relative="1" as="geometry">
            <mxPoint as="offset" />
          </mxGeometry>
        </mxCell>
        <mxCell id="8NO0AHSbTcHH3xZStWIT-47" value="&lt;div&gt;DirectedLine&lt;/div&gt;&lt;div&gt;Cutting&lt;/div&gt;&lt;div&gt;CenteredUnitSquare&lt;br&gt;&lt;/div&gt;" style="rounded=1;whiteSpace=wrap;html=1;fillColor=#1ba1e2;strokeColor=#006EAF;fontColor=#ffffff;" parent="1" vertex="1">
          <mxGeometry x="1060" y="520" width="140" height="50" as="geometry" />
        </mxCell>
        <mxCell id="8NO0AHSbTcHH3xZStWIT-52" value="&lt;div&gt;TwoPoints&lt;/div&gt;&lt;div&gt;OnDifferentFacesOf&lt;/div&gt;&lt;div&gt;CenteredUnitSquare&lt;/div&gt;" style="rounded=1;whiteSpace=wrap;html=1;fillColor=#1ba1e2;strokeColor=#006EAF;fontColor=#ffffff;" parent="1" vertex="1">
          <mxGeometry x="1060" y="355" width="140" height="60" as="geometry" />
        </mxCell>
        <mxCell id="8NO0AHSbTcHH3xZStWIT-57" value="" style="endArrow=classic;html=1;rounded=0;orthogonal=0;" parent="1" source="8NO0AHSbTcHH3xZStWIT-39" target="8NO0AHSbTcHH3xZStWIT-52" edge="1">
          <mxGeometry width="50" height="50" relative="1" as="geometry">
            <mxPoint x="855" y="365" as="sourcePoint" />
            <mxPoint x="950" y="290" as="targetPoint" />
          </mxGeometry>
        </mxCell>
        <mxCell id="dO09flpF3zp-Y3cEDFPq-5" value="&lt;div&gt;Newtype&lt;/div&gt;&lt;div&gt;(&lt;font color=&quot;#a51d2d&quot;&gt;refinement&lt;/font&gt;)&lt;br&gt;&lt;/div&gt;" style="edgeLabel;html=1;align=center;verticalAlign=middle;resizable=0;points=[];" parent="8NO0AHSbTcHH3xZStWIT-57" vertex="1" connectable="0">
          <mxGeometry relative="1" as="geometry">
            <mxPoint as="offset" />
          </mxGeometry>
        </mxCell>
        <mxCell id="8NO0AHSbTcHH3xZStWIT-59" value="" style="endArrow=classic;html=1;rounded=0;orthogonal=0;" parent="1" source="8NO0AHSbTcHH3xZStWIT-52" target="8NO0AHSbTcHH3xZStWIT-47" edge="1">
          <mxGeometry width="50" height="50" relative="1" as="geometry">
            <mxPoint x="940" y="305" as="sourcePoint" />
            <mxPoint x="940" y="345" as="targetPoint" />
          </mxGeometry>
        </mxCell>
        <mxCell id="dO09flpF3zp-Y3cEDFPq-8" value="&lt;div&gt;Newtype&lt;/div&gt;&lt;div&gt;(&lt;font color=&quot;#26a269&quot;&gt;abstraction&lt;/font&gt;)&lt;br&gt;&lt;/div&gt;" style="edgeLabel;html=1;align=center;verticalAlign=middle;resizable=0;points=[];" parent="8NO0AHSbTcHH3xZStWIT-59" vertex="1" connectable="0">
          <mxGeometry relative="1" as="geometry">
            <mxPoint y="-27" as="offset" />
          </mxGeometry>
        </mxCell>
        <mxCell id="8NO0AHSbTcHH3xZStWIT-66" value="&lt;div&gt;HalfPlane&lt;/div&gt;&lt;div&gt;Cutting&lt;/div&gt;&lt;div&gt;CenteredUnitSquare&lt;/div&gt;" style="rounded=1;whiteSpace=wrap;html=1;fillColor=#1ba1e2;strokeColor=#006EAF;fontColor=#ffffff;" parent="1" vertex="1">
          <mxGeometry x="1065" y="680" width="130" height="55" as="geometry" />
        </mxCell>
        <mxCell id="8NO0AHSbTcHH3xZStWIT-67" value="" style="endArrow=classic;html=1;rounded=0;orthogonal=0;" parent="1" source="8NO0AHSbTcHH3xZStWIT-47" target="8NO0AHSbTcHH3xZStWIT-66" edge="1">
          <mxGeometry x="-0.284" y="-61" width="50" height="50" relative="1" as="geometry">
            <mxPoint x="1014.29" y="350" as="sourcePoint" />
            <mxPoint x="1014.29" y="395" as="targetPoint" />
            <mxPoint as="offset" />
          </mxGeometry>
        </mxCell>
        <mxCell id="HVuLOxm5gcPt4g6opzB_-2" value="&lt;div&gt;Newtype&lt;/div&gt;&lt;div&gt;(&lt;font color=&quot;#1a5fb4&quot;&gt;semantic&lt;/font&gt;)&lt;br&gt;&lt;/div&gt;" style="edgeLabel;html=1;align=center;verticalAlign=middle;resizable=0;points=[];" parent="8NO0AHSbTcHH3xZStWIT-67" vertex="1" connectable="0">
          <mxGeometry relative="1" as="geometry">
            <mxPoint x="2" y="-35" as="offset" />
          </mxGeometry>
        </mxCell>
        <mxCell id="HVuLOxm5gcPt4g6opzB_-6" value="" style="endArrow=classic;dashed=1;html=1;dashPattern=1 3;strokeWidth=2;rounded=0;endFill=1;endSize=3;orthogonal=0;" parent="1" source="8NO0AHSbTcHH3xZStWIT-38" target="8NO0AHSbTcHH3xZStWIT-47" edge="1">
          <mxGeometry width="50" height="50" relative="1" as="geometry">
            <mxPoint x="825" y="350" as="sourcePoint" />
            <mxPoint x="965" y="395" as="targetPoint" />
          </mxGeometry>
        </mxCell>
        <mxCell id="HVuLOxm5gcPt4g6opzB_-7" value="&lt;div&gt;&lt;font color=&quot;#a51d2d&quot;&gt;refinement&lt;/font&gt;&lt;br&gt;&lt;/div&gt;" style="edgeLabel;html=1;align=center;verticalAlign=middle;resizable=0;points=[];" parent="HVuLOxm5gcPt4g6opzB_-6" vertex="1" connectable="0">
          <mxGeometry relative="1" as="geometry">
            <mxPoint as="offset" />
          </mxGeometry>
        </mxCell>
        <mxCell id="HVuLOxm5gcPt4g6opzB_-8" value="" style="endArrow=classic;dashed=1;html=1;dashPattern=1 3;strokeWidth=2;rounded=0;endFill=1;endSize=3;orthogonal=0;" parent="1" source="8NO0AHSbTcHH3xZStWIT-42" target="8NO0AHSbTcHH3xZStWIT-66" edge="1">
          <mxGeometry width="50" height="50" relative="1" as="geometry">
            <mxPoint x="1020" y="580" as="sourcePoint" />
            <mxPoint x="1145" y="580" as="targetPoint" />
          </mxGeometry>
        </mxCell>
        <mxCell id="HVuLOxm5gcPt4g6opzB_-9" value="&lt;div&gt;&lt;font color=&quot;#a51d2d&quot;&gt;refinement&lt;/font&gt;&lt;br&gt;&lt;/div&gt;" style="edgeLabel;html=1;align=center;verticalAlign=middle;resizable=0;points=[];" parent="HVuLOxm5gcPt4g6opzB_-8" vertex="1" connectable="0">
          <mxGeometry relative="1" as="geometry">
            <mxPoint as="offset" />
          </mxGeometry>
        </mxCell>
        <mxCell id="0TJrppLCOqJmz8Xq7RQ5-5" value="" style="endArrow=classic;html=1;rounded=0;fontSize=12;startSize=8;endSize=8;curved=1;orthogonal=0;" parent="1" source="8NO0AHSbTcHH3xZStWIT-52" target="0TJrppLCOqJmz8Xq7RQ5-2" edge="1">
          <mxGeometry relative="1" as="geometry">
            <mxPoint x="1250" y="272.5" as="sourcePoint" />
            <mxPoint x="1350" y="272.5" as="targetPoint" />
          </mxGeometry>
        </mxCell>
        <mxCell id="0TJrppLCOqJmz8Xq7RQ5-6" value="&lt;div&gt;Wrapped&lt;/div&gt;&lt;div&gt;(RelativeTo&lt;/div&gt;&lt;div&gt;GridSquare)&lt;br&gt;&lt;/div&gt;" style="edgeLabel;resizable=0;html=1;fontSize=12;;align=center;verticalAlign=middle;" parent="0TJrppLCOqJmz8Xq7RQ5-5" connectable="0" vertex="1">
          <mxGeometry relative="1" as="geometry">
            <mxPoint x="15" y="4" as="offset" />
          </mxGeometry>
        </mxCell>
        <mxCell id="0TJrppLCOqJmz8Xq7RQ5-9" value="" style="endArrow=classic;html=1;rounded=0;fontSize=12;startSize=8;endSize=8;curved=1;orthogonal=0;" parent="1" source="8NO0AHSbTcHH3xZStWIT-47" target="0TJrppLCOqJmz8Xq7RQ5-1" edge="1">
          <mxGeometry relative="1" as="geometry">
            <mxPoint x="1220" y="391.5" as="sourcePoint" />
            <mxPoint x="1360" y="398.5" as="targetPoint" />
          </mxGeometry>
        </mxCell>
        <mxCell id="0TJrppLCOqJmz8Xq7RQ5-10" value="&lt;div style=&quot;color: rgb(0, 0, 0); font-family: Helvetica; font-size: 12px; font-style: normal; font-variant-ligatures: normal; font-variant-caps: normal; font-weight: 400; letter-spacing: normal; orphans: 2; text-align: center; text-indent: 0px; text-transform: none; widows: 2; word-spacing: 0px; -webkit-text-stroke-width: 0px; white-space: nowrap; text-decoration-thickness: initial; text-decoration-style: initial; text-decoration-color: initial;&quot;&gt;Wrapped&lt;/div&gt;&lt;div style=&quot;color: rgb(0, 0, 0); font-family: Helvetica; font-size: 12px; font-style: normal; font-variant-ligatures: normal; font-variant-caps: normal; font-weight: 400; letter-spacing: normal; orphans: 2; text-align: center; text-indent: 0px; text-transform: none; widows: 2; word-spacing: 0px; -webkit-text-stroke-width: 0px; white-space: nowrap; text-decoration-thickness: initial; text-decoration-style: initial; text-decoration-color: initial;&quot;&gt;(RelativeTo&lt;/div&gt;&lt;div style=&quot;color: rgb(0, 0, 0); font-family: Helvetica; font-size: 12px; font-style: normal; font-variant-ligatures: normal; font-variant-caps: normal; font-weight: 400; letter-spacing: normal; orphans: 2; text-align: center; text-indent: 0px; text-transform: none; widows: 2; word-spacing: 0px; -webkit-text-stroke-width: 0px; white-space: nowrap; text-decoration-thickness: initial; text-decoration-style: initial; text-decoration-color: initial;&quot;&gt;GridSquare)&lt;/div&gt;" style="edgeLabel;resizable=0;html=1;fontSize=12;;align=center;verticalAlign=middle;" parent="0TJrppLCOqJmz8Xq7RQ5-9" connectable="0" vertex="1">
          <mxGeometry relative="1" as="geometry">
            <mxPoint x="12" y="2" as="offset" />
          </mxGeometry>
        </mxCell>
        <mxCell id="0TJrppLCOqJmz8Xq7RQ5-11" value="" style="endArrow=classic;html=1;rounded=0;fontSize=12;startSize=8;endSize=8;curved=1;orthogonal=0;" parent="1" source="8NO0AHSbTcHH3xZStWIT-66" target="0TJrppLCOqJmz8Xq7RQ5-15" edge="1">
          <mxGeometry relative="1" as="geometry">
            <mxPoint x="1280" y="560" as="sourcePoint" />
            <mxPoint x="1420" y="567" as="targetPoint" />
          </mxGeometry>
        </mxCell>
        <mxCell id="0TJrppLCOqJmz8Xq7RQ5-12" value="&lt;div style=&quot;color: rgb(0, 0, 0); font-family: Helvetica; font-size: 12px; font-style: normal; font-variant-ligatures: normal; font-variant-caps: normal; font-weight: 400; letter-spacing: normal; orphans: 2; text-align: center; text-indent: 0px; text-transform: none; widows: 2; word-spacing: 0px; -webkit-text-stroke-width: 0px; white-space: nowrap; text-decoration-thickness: initial; text-decoration-style: initial; text-decoration-color: initial;&quot;&gt;Wrapped&lt;/div&gt;&lt;div style=&quot;color: rgb(0, 0, 0); font-family: Helvetica; font-size: 12px; font-style: normal; font-variant-ligatures: normal; font-variant-caps: normal; font-weight: 400; letter-spacing: normal; orphans: 2; text-align: center; text-indent: 0px; text-transform: none; widows: 2; word-spacing: 0px; -webkit-text-stroke-width: 0px; white-space: nowrap; text-decoration-thickness: initial; text-decoration-style: initial; text-decoration-color: initial;&quot;&gt;(RelativeTo&lt;/div&gt;&lt;div style=&quot;color: rgb(0, 0, 0); font-family: Helvetica; font-size: 12px; font-style: normal; font-variant-ligatures: normal; font-variant-caps: normal; font-weight: 400; letter-spacing: normal; orphans: 2; text-align: center; text-indent: 0px; text-transform: none; widows: 2; word-spacing: 0px; -webkit-text-stroke-width: 0px; white-space: nowrap; text-decoration-thickness: initial; text-decoration-style: initial; text-decoration-color: initial;&quot;&gt;GridSquare)&lt;/div&gt;" style="edgeLabel;resizable=0;html=1;fontSize=12;;align=center;verticalAlign=middle;" parent="0TJrppLCOqJmz8Xq7RQ5-11" connectable="0" vertex="1">
          <mxGeometry relative="1" as="geometry">
            <mxPoint x="13" y="4" as="offset" />
          </mxGeometry>
        </mxCell>
        <mxCell id="N71l-OULLyR_cf9wNzuh-89" value="&lt;div&gt;Line&lt;/div&gt;" style="rounded=1;whiteSpace=wrap;html=1;fillColor=#1ba1e2;strokeColor=#006EAF;fontColor=#ffffff;" parent="1" vertex="1">
          <mxGeometry x="760" y="-140" width="80" height="40" as="geometry" />
        </mxCell>
        <mxCell id="N71l-OULLyR_cf9wNzuh-90" style="edgeStyle=orthogonalEdgeStyle;rounded=1;orthogonalLoop=1;jettySize=auto;html=1;noEdgeStyle=1;orthogonal=0;" parent="1" source="N71l-OULLyR_cf9wNzuh-92" target="N71l-OULLyR_cf9wNzuh-89" edge="1">
          <mxGeometry relative="1" as="geometry">
            <Array as="points">
              <mxPoint x="905" y="-540" />
              <mxPoint x="905" y="-120" />
            </Array>
          </mxGeometry>
        </mxCell>
        <mxCell id="N71l-OULLyR_cf9wNzuh-91" value="&lt;div&gt;Newtype&lt;/div&gt;&lt;div&gt;(hide data)&lt;br&gt;&lt;/div&gt;" style="edgeLabel;html=1;align=center;verticalAlign=middle;resizable=0;points=[];rounded=1;" parent="N71l-OULLyR_cf9wNzuh-90" vertex="1" connectable="0">
          <mxGeometry relative="1" as="geometry">
            <mxPoint y="28" as="offset" />
          </mxGeometry>
        </mxCell>
        <mxCell id="N71l-OULLyR_cf9wNzuh-92" value="&lt;div&gt;DirectedLine&lt;/div&gt;" style="rounded=1;whiteSpace=wrap;html=1;fillColor=#1ba1e2;strokeColor=#006EAF;fontColor=#ffffff;" parent="1" vertex="1">
          <mxGeometry x="645.0011111111111" y="-560" width="80" height="40" as="geometry" />
        </mxCell>
        <mxCell id="N71l-OULLyR_cf9wNzuh-93" value="TwoPoints" style="rounded=1;whiteSpace=wrap;html=1;fillColor=#1ba1e2;strokeColor=#006EAF;fontColor=#ffffff;" parent="1" vertex="1">
          <mxGeometry x="645.0011111111111" y="-650" width="80" height="40" as="geometry" />
        </mxCell>
        <mxCell id="N71l-OULLyR_cf9wNzuh-94" value="" style="endArrow=classic;html=1;rounded=1;noEdgeStyle=1;orthogonal=0;" parent="1" source="N71l-OULLyR_cf9wNzuh-93" target="N71l-OULLyR_cf9wNzuh-92" edge="1">
          <mxGeometry width="50" height="50" relative="1" as="geometry">
            <mxPoint x="715" y="-145" as="sourcePoint" />
            <mxPoint x="765" y="-195" as="targetPoint" />
            <Array as="points" />
          </mxGeometry>
        </mxCell>
        <mxCell id="N71l-OULLyR_cf9wNzuh-95" value="Newtype" style="edgeLabel;html=1;align=center;verticalAlign=middle;resizable=0;points=[];rounded=1;" parent="N71l-OULLyR_cf9wNzuh-94" vertex="1" connectable="0">
          <mxGeometry relative="1" as="geometry">
            <mxPoint as="offset" />
          </mxGeometry>
        </mxCell>
        <mxCell id="N71l-OULLyR_cf9wNzuh-96" style="edgeStyle=orthogonalEdgeStyle;rounded=1;orthogonalLoop=1;jettySize=auto;html=1;noEdgeStyle=1;orthogonal=0;" parent="1" source="N71l-OULLyR_cf9wNzuh-89" target="N71l-OULLyR_cf9wNzuh-126" edge="1">
          <mxGeometry relative="1" as="geometry">
            <mxPoint x="400" y="-500" as="sourcePoint" />
            <mxPoint x="610" y="-470" as="targetPoint" />
            <Array as="points" />
          </mxGeometry>
        </mxCell>
        <mxCell id="N71l-OULLyR_cf9wNzuh-97" value="&lt;div&gt;Type alias&lt;/div&gt;subset" style="edgeLabel;html=1;align=center;verticalAlign=middle;resizable=0;points=[];rounded=1;" parent="N71l-OULLyR_cf9wNzuh-96" vertex="1" connectable="0">
          <mxGeometry x="-0.1957" relative="1" as="geometry">
            <mxPoint x="5" as="offset" />
          </mxGeometry>
        </mxCell>
        <mxCell id="N71l-OULLyR_cf9wNzuh-98" style="edgeStyle=orthogonalEdgeStyle;rounded=1;orthogonalLoop=1;jettySize=auto;html=1;noEdgeStyle=1;orthogonal=0;" parent="1" source="N71l-OULLyR_cf9wNzuh-92" target="N71l-OULLyR_cf9wNzuh-127" edge="1">
          <mxGeometry relative="1" as="geometry">
            <Array as="points" />
            <mxPoint x="400" y="-520" as="sourcePoint" />
            <mxPoint x="590" y="-520" as="targetPoint" />
          </mxGeometry>
        </mxCell>
        <mxCell id="N71l-OULLyR_cf9wNzuh-99" value="&lt;div&gt;Type alias&lt;/div&gt;subset" style="edgeLabel;html=1;align=center;verticalAlign=middle;resizable=0;points=[];rounded=1;" parent="N71l-OULLyR_cf9wNzuh-98" vertex="1" connectable="0">
          <mxGeometry x="-0.1957" relative="1" as="geometry">
            <mxPoint x="56" as="offset" />
          </mxGeometry>
        </mxCell>
        <mxCell id="N71l-OULLyR_cf9wNzuh-100" value="" style="endArrow=classic;html=1;rounded=1;orthogonal=0;" parent="1" source="N71l-OULLyR_cf9wNzuh-89" target="N71l-OULLyR_cf9wNzuh-108" edge="1">
          <mxGeometry width="50" height="50" relative="1" as="geometry">
            <mxPoint x="775" y="-430" as="sourcePoint" />
            <mxPoint x="825" y="-480" as="targetPoint" />
          </mxGeometry>
        </mxCell>
        <mxCell id="N71l-OULLyR_cf9wNzuh-101" value="impl" style="edgeLabel;html=1;align=center;verticalAlign=middle;resizable=0;points=[];rounded=1;" parent="N71l-OULLyR_cf9wNzuh-100" vertex="1" connectable="0">
          <mxGeometry relative="1" as="geometry">
            <mxPoint as="offset" />
          </mxGeometry>
        </mxCell>
        <mxCell id="N71l-OULLyR_cf9wNzuh-102" value="" style="endArrow=classic;html=1;rounded=1;orthogonal=0;" parent="1" source="N71l-OULLyR_cf9wNzuh-92" target="N71l-OULLyR_cf9wNzuh-109" edge="1">
          <mxGeometry width="50" height="50" relative="1" as="geometry">
            <mxPoint x="675" y="-392" as="sourcePoint" />
            <mxPoint x="805" y="-348" as="targetPoint" />
          </mxGeometry>
        </mxCell>
        <mxCell id="N71l-OULLyR_cf9wNzuh-103" value="impl" style="edgeLabel;html=1;align=center;verticalAlign=middle;resizable=0;points=[];rounded=1;" parent="N71l-OULLyR_cf9wNzuh-102" vertex="1" connectable="0">
          <mxGeometry relative="1" as="geometry">
            <mxPoint y="-25" as="offset" />
          </mxGeometry>
        </mxCell>
        <mxCell id="N71l-OULLyR_cf9wNzuh-104" value="" style="endArrow=classic;html=1;rounded=1;orthogonal=0;" parent="1" source="N71l-OULLyR_cf9wNzuh-89" target="N71l-OULLyR_cf9wNzuh-116" edge="1">
          <mxGeometry width="50" height="50" relative="1" as="geometry">
            <mxPoint x="711" y="-450" as="sourcePoint" />
            <mxPoint x="645" y="-500" as="targetPoint" />
          </mxGeometry>
        </mxCell>
        <mxCell id="N71l-OULLyR_cf9wNzuh-105" value="impl" style="edgeLabel;html=1;align=center;verticalAlign=middle;resizable=0;points=[];rounded=1;" parent="N71l-OULLyR_cf9wNzuh-104" vertex="1" connectable="0">
          <mxGeometry relative="1" as="geometry">
            <mxPoint as="offset" />
          </mxGeometry>
        </mxCell>
        <mxCell id="N71l-OULLyR_cf9wNzuh-106" value="" style="endArrow=classic;html=1;rounded=1;orthogonal=0;" parent="1" source="N71l-OULLyR_cf9wNzuh-92" target="N71l-OULLyR_cf9wNzuh-117" edge="1">
          <mxGeometry width="50" height="50" relative="1" as="geometry">
            <mxPoint x="695" y="-510" as="sourcePoint" />
            <mxPoint x="629" y="-560" as="targetPoint" />
          </mxGeometry>
        </mxCell>
        <mxCell id="N71l-OULLyR_cf9wNzuh-107" value="impl" style="edgeLabel;html=1;align=center;verticalAlign=middle;resizable=0;points=[];rounded=1;" parent="N71l-OULLyR_cf9wNzuh-106" vertex="1" connectable="0">
          <mxGeometry relative="1" as="geometry">
            <mxPoint as="offset" />
          </mxGeometry>
        </mxCell>
        <mxCell id="N71l-OULLyR_cf9wNzuh-108" value="&lt;div&gt;Line&lt;/div&gt;&lt;div&gt;Ops&lt;br&gt;&lt;/div&gt;" style="rounded=0;whiteSpace=wrap;html=1;fillColor=#fa6800;strokeColor=#C73500;fontColor=#000000;shape=parallelogram;fixedSize=1;perimeter=parallelogramPerimeter;" parent="1" vertex="1">
          <mxGeometry x="630" y="-245" width="110" height="40" as="geometry" />
        </mxCell>
        <mxCell id="N71l-OULLyR_cf9wNzuh-109" value="&lt;div&gt;DirectedLine&lt;/div&gt;&lt;div&gt;Ops&lt;br&gt;&lt;/div&gt;" style="rounded=0;whiteSpace=wrap;html=1;fillColor=#fa6800;strokeColor=#C73500;fontColor=#000000;shape=parallelogram;fixedSize=1;perimeter=parallelogramPerimeter;" parent="1" vertex="1">
          <mxGeometry x="620" y="-430" width="130" height="40" as="geometry" />
        </mxCell>
        <mxCell id="N71l-OULLyR_cf9wNzuh-110" value="" style="endArrow=classic;html=1;rounded=1;orthogonal=0;" parent="1" source="N71l-OULLyR_cf9wNzuh-138" target="N71l-OULLyR_cf9wNzuh-108" edge="1">
          <mxGeometry relative="1" as="geometry">
            <mxPoint x="720" y="-440" as="sourcePoint" />
            <mxPoint x="582" y="-490" as="targetPoint" />
          </mxGeometry>
        </mxCell>
        <mxCell id="N71l-OULLyR_cf9wNzuh-111" value="&lt;div&gt;Require&lt;/div&gt;&lt;div&gt;(more general)&lt;/div&gt;" style="edgeLabel;resizable=0;html=1;;align=center;verticalAlign=middle;container=0;rounded=1;" parent="N71l-OULLyR_cf9wNzuh-110" connectable="0" vertex="1">
          <mxGeometry relative="1" as="geometry">
            <mxPoint x="112" as="offset" />
          </mxGeometry>
        </mxCell>
        <mxCell id="N71l-OULLyR_cf9wNzuh-112" value="" style="endArrow=classic;html=1;rounded=1;orthogonal=0;" parent="1" source="N71l-OULLyR_cf9wNzuh-109" target="N71l-OULLyR_cf9wNzuh-108" edge="1">
          <mxGeometry relative="1" as="geometry">
            <mxPoint x="1035" y="-670" as="sourcePoint" />
            <mxPoint x="1135" y="-670" as="targetPoint" />
          </mxGeometry>
        </mxCell>
        <mxCell id="N71l-OULLyR_cf9wNzuh-113" value="&lt;div&gt;Require&lt;/div&gt;&lt;div&gt;(simpler manipulation)&lt;br&gt;&lt;/div&gt;" style="edgeLabel;resizable=0;html=1;;align=center;verticalAlign=middle;container=0;rounded=1;" parent="N71l-OULLyR_cf9wNzuh-112" connectable="0" vertex="1">
          <mxGeometry relative="1" as="geometry">
            <mxPoint x="5" y="-23" as="offset" />
          </mxGeometry>
        </mxCell>
        <mxCell id="N71l-OULLyR_cf9wNzuh-114" value="" style="endArrow=classic;html=1;rounded=1;orthogonal=0;" parent="1" source="N71l-OULLyR_cf9wNzuh-139" target="N71l-OULLyR_cf9wNzuh-109" edge="1">
          <mxGeometry relative="1" as="geometry">
            <mxPoint x="690" y="-270" as="sourcePoint" />
            <mxPoint x="690" y="-190" as="targetPoint" />
          </mxGeometry>
        </mxCell>
        <mxCell id="N71l-OULLyR_cf9wNzuh-115" value="&lt;div&gt;Require&lt;/div&gt;&lt;div&gt;(more general)&lt;/div&gt;" style="edgeLabel;resizable=0;html=1;;align=center;verticalAlign=middle;container=0;rounded=1;" parent="N71l-OULLyR_cf9wNzuh-114" connectable="0" vertex="1">
          <mxGeometry relative="1" as="geometry">
            <mxPoint x="102" as="offset" />
          </mxGeometry>
        </mxCell>
        <mxCell id="N71l-OULLyR_cf9wNzuh-116" value="&lt;div&gt;Line&lt;/div&gt;&lt;div&gt;Constructors&lt;br&gt;&lt;/div&gt;" style="rounded=0;whiteSpace=wrap;html=1;fillColor=#fa6800;strokeColor=#C73500;fontColor=#000000;shape=parallelogram;fixedSize=1;perimeter=parallelogramPerimeter;" parent="1" vertex="1">
          <mxGeometry x="745" y="-300" width="110" height="40" as="geometry" />
        </mxCell>
        <mxCell id="N71l-OULLyR_cf9wNzuh-117" value="&lt;div&gt;DirectedLine&lt;/div&gt;&lt;div&gt;Constructors&lt;br&gt;&lt;/div&gt;" style="rounded=0;whiteSpace=wrap;html=1;fillColor=#fa6800;strokeColor=#C73500;fontColor=#000000;shape=parallelogram;fixedSize=1;perimeter=parallelogramPerimeter;" parent="1" vertex="1">
          <mxGeometry x="730" y="-480" width="140" height="40" as="geometry" />
        </mxCell>
        <mxCell id="N71l-OULLyR_cf9wNzuh-118" value="" style="endArrow=classic;html=1;rounded=1;orthogonal=0;" parent="1" source="N71l-OULLyR_cf9wNzuh-142" target="N71l-OULLyR_cf9wNzuh-116" edge="1">
          <mxGeometry relative="1" as="geometry">
            <mxPoint x="620" y="-430.43" as="sourcePoint" />
            <mxPoint x="550" y="-430.43" as="targetPoint" />
          </mxGeometry>
        </mxCell>
        <mxCell id="N71l-OULLyR_cf9wNzuh-119" value="&lt;div&gt;Require&lt;/div&gt;&lt;div&gt;(more general)&lt;/div&gt;" style="edgeLabel;resizable=0;html=1;;align=center;verticalAlign=middle;container=0;rounded=1;" parent="N71l-OULLyR_cf9wNzuh-118" connectable="0" vertex="1">
          <mxGeometry relative="1" as="geometry">
            <mxPoint x="-21" as="offset" />
          </mxGeometry>
        </mxCell>
        <mxCell id="N71l-OULLyR_cf9wNzuh-120" value="" style="endArrow=classic;html=1;rounded=1;orthogonal=0;" parent="1" source="N71l-OULLyR_cf9wNzuh-116" target="N71l-OULLyR_cf9wNzuh-117" edge="1">
          <mxGeometry relative="1" as="geometry">
            <mxPoint x="737" y="-285" as="sourcePoint" />
            <mxPoint x="583" y="-530" as="targetPoint" />
          </mxGeometry>
        </mxCell>
        <mxCell id="N71l-OULLyR_cf9wNzuh-121" value="&lt;div&gt;Require&lt;/div&gt;&lt;div&gt;(discard data)&lt;br&gt;&lt;/div&gt;" style="edgeLabel;resizable=0;html=1;;align=center;verticalAlign=middle;container=0;rounded=1;" parent="N71l-OULLyR_cf9wNzuh-120" connectable="0" vertex="1">
          <mxGeometry relative="1" as="geometry">
            <mxPoint as="offset" />
          </mxGeometry>
        </mxCell>
        <mxCell id="N71l-OULLyR_cf9wNzuh-122" value="" style="endArrow=classic;html=1;rounded=1;orthogonal=0;" parent="1" source="N71l-OULLyR_cf9wNzuh-143" target="N71l-OULLyR_cf9wNzuh-117" edge="1">
          <mxGeometry relative="1" as="geometry">
            <mxPoint x="510" y="-440" as="sourcePoint" />
            <mxPoint x="510" y="-490" as="targetPoint" />
          </mxGeometry>
        </mxCell>
        <mxCell id="N71l-OULLyR_cf9wNzuh-123" value="&lt;div&gt;Require&lt;/div&gt;&lt;div&gt;(more general)&lt;br&gt;&lt;/div&gt;" style="edgeLabel;resizable=0;html=1;;align=center;verticalAlign=middle;container=0;rounded=1;" parent="N71l-OULLyR_cf9wNzuh-122" connectable="0" vertex="1">
          <mxGeometry relative="1" as="geometry">
            <mxPoint x="-31" as="offset" />
          </mxGeometry>
        </mxCell>
        <mxCell id="N71l-OULLyR_cf9wNzuh-124" value="With Specific Point Datatypes" style="swimlane;startSize=30;fillColor=#FFFFFF;fontColor=#000000;strokeColor=#FF0000;swimlaneFillColor=none;strokeWidth=8;perimeterSpacing=0;rounded=1;swimlaneLine=1;glass=0;shadow=1;arcSize=25;comic=0;enumerate=0;moveCells=0;autosize=0;fillStyle=auto;" parent="1" vertex="1">
          <mxGeometry x="60" y="-610" width="410" height="530" as="geometry">
            <mxRectangle x="60" y="135" width="50" height="40" as="alternateBounds" />
          </mxGeometry>
        </mxCell>
        <mxCell id="N71l-OULLyR_cf9wNzuh-125" value="" style="group" parent="N71l-OULLyR_cf9wNzuh-124" vertex="1" connectable="0">
          <mxGeometry x="40" y="50" width="345" height="460" as="geometry" />
        </mxCell>
        <mxCell id="N71l-OULLyR_cf9wNzuh-126" value="&lt;div&gt;Float(Int)Line&lt;br&gt;&lt;/div&gt;" style="rounded=1;whiteSpace=wrap;html=1;fillColor=#1ba1e2;strokeColor=#006EAF;fontColor=#ffffff;" parent="N71l-OULLyR_cf9wNzuh-125" vertex="1">
          <mxGeometry x="60" y="420" width="80" height="40" as="geometry" />
        </mxCell>
        <mxCell id="N71l-OULLyR_cf9wNzuh-127" value="&lt;div&gt;DirectedFloat(Int)Line&lt;/div&gt;" style="rounded=1;whiteSpace=wrap;html=1;fillColor=#1ba1e2;strokeColor=#006EAF;fontColor=#ffffff;" parent="N71l-OULLyR_cf9wNzuh-125" vertex="1">
          <mxGeometry x="32.5" width="150" height="40" as="geometry" />
        </mxCell>
        <mxCell id="N71l-OULLyR_cf9wNzuh-128" value="" style="endArrow=none;dashed=1;html=1;dashPattern=1 3;strokeWidth=2;rounded=1;orthogonal=0;" parent="N71l-OULLyR_cf9wNzuh-125" source="N71l-OULLyR_cf9wNzuh-126" target="N71l-OULLyR_cf9wNzuh-127" edge="1">
          <mxGeometry width="50" height="50" relative="1" as="geometry">
            <mxPoint x="424.53" y="620" as="sourcePoint" />
            <mxPoint x="474.53" y="570" as="targetPoint" />
            <Array as="points">
              <mxPoint y="440" />
              <mxPoint y="20" />
            </Array>
          </mxGeometry>
        </mxCell>
        <mxCell id="N71l-OULLyR_cf9wNzuh-129" value="&lt;div&gt;Analogous&lt;/div&gt;" style="edgeLabel;html=1;align=center;verticalAlign=middle;resizable=0;points=[];rounded=1;" parent="N71l-OULLyR_cf9wNzuh-128" vertex="1" connectable="0">
          <mxGeometry relative="1" as="geometry">
            <mxPoint as="offset" />
          </mxGeometry>
        </mxCell>
        <mxCell id="N71l-OULLyR_cf9wNzuh-130" value="" style="endArrow=classic;html=1;rounded=1;orthogonal=0;" parent="N71l-OULLyR_cf9wNzuh-125" source="N71l-OULLyR_cf9wNzuh-127" target="N71l-OULLyR_cf9wNzuh-139" edge="1">
          <mxGeometry width="50" height="50" relative="1" as="geometry">
            <mxPoint x="430" y="310" as="sourcePoint" />
            <mxPoint x="500" y="310" as="targetPoint" />
          </mxGeometry>
        </mxCell>
        <mxCell id="N71l-OULLyR_cf9wNzuh-131" value="impl" style="edgeLabel;html=1;align=center;verticalAlign=middle;resizable=0;points=[];rounded=1;" parent="N71l-OULLyR_cf9wNzuh-130" vertex="1" connectable="0">
          <mxGeometry relative="1" as="geometry">
            <mxPoint as="offset" />
          </mxGeometry>
        </mxCell>
        <mxCell id="N71l-OULLyR_cf9wNzuh-132" value="" style="endArrow=classic;html=1;rounded=1;orthogonal=0;" parent="N71l-OULLyR_cf9wNzuh-125" source="N71l-OULLyR_cf9wNzuh-126" target="N71l-OULLyR_cf9wNzuh-138" edge="1">
          <mxGeometry width="50" height="50" relative="1" as="geometry">
            <mxPoint x="150" y="420" as="sourcePoint" />
            <mxPoint x="220" y="420" as="targetPoint" />
          </mxGeometry>
        </mxCell>
        <mxCell id="N71l-OULLyR_cf9wNzuh-133" value="impl" style="edgeLabel;html=1;align=center;verticalAlign=middle;resizable=0;points=[];rounded=1;" parent="N71l-OULLyR_cf9wNzuh-132" vertex="1" connectable="0">
          <mxGeometry relative="1" as="geometry">
            <mxPoint as="offset" />
          </mxGeometry>
        </mxCell>
        <mxCell id="N71l-OULLyR_cf9wNzuh-134" value="" style="endArrow=classic;html=1;rounded=1;orthogonal=0;" parent="N71l-OULLyR_cf9wNzuh-125" source="N71l-OULLyR_cf9wNzuh-127" target="N71l-OULLyR_cf9wNzuh-143" edge="1">
          <mxGeometry width="50" height="50" relative="1" as="geometry">
            <mxPoint x="77" as="sourcePoint" />
            <mxPoint x="93" y="180" as="targetPoint" />
          </mxGeometry>
        </mxCell>
        <mxCell id="N71l-OULLyR_cf9wNzuh-135" value="impl" style="edgeLabel;html=1;align=center;verticalAlign=middle;resizable=0;points=[];rounded=1;" parent="N71l-OULLyR_cf9wNzuh-134" vertex="1" connectable="0">
          <mxGeometry relative="1" as="geometry">
            <mxPoint as="offset" />
          </mxGeometry>
        </mxCell>
        <mxCell id="N71l-OULLyR_cf9wNzuh-136" value="" style="endArrow=classic;html=1;rounded=1;orthogonal=0;" parent="N71l-OULLyR_cf9wNzuh-125" source="N71l-OULLyR_cf9wNzuh-126" target="N71l-OULLyR_cf9wNzuh-142" edge="1">
          <mxGeometry width="50" height="50" relative="1" as="geometry">
            <mxPoint x="54" y="510" as="sourcePoint" />
            <mxPoint x="90" y="350" as="targetPoint" />
          </mxGeometry>
        </mxCell>
        <mxCell id="N71l-OULLyR_cf9wNzuh-137" value="impl" style="edgeLabel;html=1;align=center;verticalAlign=middle;resizable=0;points=[];rounded=1;" parent="N71l-OULLyR_cf9wNzuh-136" vertex="1" connectable="0">
          <mxGeometry relative="1" as="geometry">
            <mxPoint as="offset" />
          </mxGeometry>
        </mxCell>
        <mxCell id="N71l-OULLyR_cf9wNzuh-138" value="&lt;div&gt;Float(Int)Line&lt;/div&gt;&lt;div&gt;Ops&lt;br&gt;&lt;/div&gt;" style="rounded=0;whiteSpace=wrap;html=1;fillColor=#fa6800;strokeColor=#C73500;fontColor=#000000;shape=parallelogram;fixedSize=1;perimeter=parallelogramPerimeter;" parent="N71l-OULLyR_cf9wNzuh-125" vertex="1">
          <mxGeometry x="40" y="310" width="120" height="50" as="geometry" />
        </mxCell>
        <mxCell id="N71l-OULLyR_cf9wNzuh-139" value="&lt;div&gt;DirectedFloat(Int)Line&lt;/div&gt;&lt;div&gt;Ops&lt;br&gt;&lt;/div&gt;" style="rounded=0;whiteSpace=wrap;html=1;fillColor=#fa6800;strokeColor=#C73500;fontColor=#000000;shape=parallelogram;fixedSize=1;perimeter=parallelogramPerimeter;" parent="N71l-OULLyR_cf9wNzuh-125" vertex="1">
          <mxGeometry x="20" y="130" width="170" height="40" as="geometry" />
        </mxCell>
        <mxCell id="N71l-OULLyR_cf9wNzuh-140" value="" style="endArrow=classic;html=1;rounded=1;orthogonal=0;" parent="N71l-OULLyR_cf9wNzuh-125" source="N71l-OULLyR_cf9wNzuh-139" target="N71l-OULLyR_cf9wNzuh-138" edge="1">
          <mxGeometry relative="1" as="geometry">
            <mxPoint x="399.5" y="330" as="sourcePoint" />
            <mxPoint x="399.5" y="410" as="targetPoint" />
          </mxGeometry>
        </mxCell>
        <mxCell id="N71l-OULLyR_cf9wNzuh-141" value="&lt;div&gt;Require&lt;/div&gt;&lt;div&gt;(simpler manipulation)&lt;br&gt;&lt;/div&gt;" style="edgeLabel;resizable=0;html=1;;align=center;verticalAlign=middle;container=0;rounded=1;" parent="N71l-OULLyR_cf9wNzuh-140" connectable="0" vertex="1">
          <mxGeometry relative="1" as="geometry">
            <mxPoint as="offset" />
          </mxGeometry>
        </mxCell>
        <mxCell id="N71l-OULLyR_cf9wNzuh-142" value="&lt;div&gt;Float(Int)Line&lt;/div&gt;&lt;div&gt;Constructors&lt;br&gt;&lt;/div&gt;" style="rounded=0;whiteSpace=wrap;html=1;fillColor=#fa6800;strokeColor=#C73500;fontColor=#000000;shape=parallelogram;fixedSize=1;perimeter=parallelogramPerimeter;" parent="N71l-OULLyR_cf9wNzuh-125" vertex="1">
          <mxGeometry x="190" y="260" width="120" height="40" as="geometry" />
        </mxCell>
        <mxCell id="N71l-OULLyR_cf9wNzuh-143" value="&lt;div&gt;DirectedFloat(Int)Line&lt;/div&gt;&lt;div&gt;Constructors&lt;br&gt;&lt;/div&gt;" style="rounded=0;whiteSpace=wrap;html=1;fillColor=#fa6800;strokeColor=#C73500;fontColor=#000000;shape=parallelogram;fixedSize=1;perimeter=parallelogramPerimeter;" parent="N71l-OULLyR_cf9wNzuh-125" vertex="1">
          <mxGeometry x="165" y="80" width="180" height="40" as="geometry" />
        </mxCell>
        <mxCell id="N71l-OULLyR_cf9wNzuh-144" value="" style="endArrow=classic;html=1;rounded=1;orthogonal=0;" parent="N71l-OULLyR_cf9wNzuh-125" source="N71l-OULLyR_cf9wNzuh-142" target="N71l-OULLyR_cf9wNzuh-143" edge="1">
          <mxGeometry relative="1" as="geometry">
            <mxPoint x="480" y="240" as="sourcePoint" />
            <mxPoint x="480" y="190" as="targetPoint" />
          </mxGeometry>
        </mxCell>
        <mxCell id="N71l-OULLyR_cf9wNzuh-145" value="&lt;div&gt;Require&lt;/div&gt;&lt;div&gt;(discard data)&lt;/div&gt;" style="edgeLabel;resizable=0;html=1;;align=center;verticalAlign=middle;container=0;rounded=1;" parent="N71l-OULLyR_cf9wNzuh-144" connectable="0" vertex="1">
          <mxGeometry relative="1" as="geometry">
            <mxPoint x="-2" y="20" as="offset" />
          </mxGeometry>
        </mxCell>
        <mxCell id="N71l-OULLyR_cf9wNzuh-146" value="&lt;div&gt;Line&lt;/div&gt;" style="rounded=1;whiteSpace=wrap;html=1;fillColor=#1ba1e2;strokeColor=#006EAF;fontColor=#ffffff;" parent="1" vertex="1">
          <mxGeometry x="1350" y="-300" width="80" height="40" as="geometry" />
        </mxCell>
        <mxCell id="N71l-OULLyR_cf9wNzuh-147" style="edgeStyle=orthogonalEdgeStyle;rounded=1;orthogonalLoop=1;jettySize=auto;html=1;noEdgeStyle=1;orthogonal=0;" parent="1" source="N71l-OULLyR_cf9wNzuh-149" target="N71l-OULLyR_cf9wNzuh-146" edge="1">
          <mxGeometry relative="1" as="geometry">
            <Array as="points" />
          </mxGeometry>
        </mxCell>
        <mxCell id="N71l-OULLyR_cf9wNzuh-148" value="&lt;div&gt;Newtype&lt;/div&gt;&lt;div&gt;(hide data)&lt;br&gt;&lt;/div&gt;" style="edgeLabel;html=1;align=center;verticalAlign=middle;resizable=0;points=[];rounded=1;" parent="N71l-OULLyR_cf9wNzuh-147" vertex="1" connectable="0">
          <mxGeometry relative="1" as="geometry">
            <mxPoint as="offset" />
          </mxGeometry>
        </mxCell>
        <mxCell id="N71l-OULLyR_cf9wNzuh-149" value="&lt;div&gt;DirectedLine&lt;/div&gt;" style="rounded=1;whiteSpace=wrap;html=1;fillColor=#1ba1e2;strokeColor=#006EAF;fontColor=#ffffff;" parent="1" vertex="1">
          <mxGeometry x="1350.0011111111112" y="-420" width="80" height="40" as="geometry" />
        </mxCell>
        <mxCell id="N71l-OULLyR_cf9wNzuh-150" value="TwoPoints" style="rounded=1;whiteSpace=wrap;html=1;fillColor=#1ba1e2;strokeColor=#006EAF;fontColor=#ffffff;" parent="1" vertex="1">
          <mxGeometry x="1350.0011111111112" y="-510" width="80" height="40" as="geometry" />
        </mxCell>
        <mxCell id="N71l-OULLyR_cf9wNzuh-151" value="" style="endArrow=classic;html=1;rounded=1;noEdgeStyle=1;orthogonal=0;" parent="1" source="N71l-OULLyR_cf9wNzuh-150" target="N71l-OULLyR_cf9wNzuh-149" edge="1">
          <mxGeometry width="50" height="50" relative="1" as="geometry">
            <mxPoint x="1420" y="-5" as="sourcePoint" />
            <mxPoint x="1470" y="-55" as="targetPoint" />
            <Array as="points" />
          </mxGeometry>
        </mxCell>
        <mxCell id="N71l-OULLyR_cf9wNzuh-152" value="Newtype" style="edgeLabel;html=1;align=center;verticalAlign=middle;resizable=0;points=[];rounded=1;" parent="N71l-OULLyR_cf9wNzuh-151" vertex="1" connectable="0">
          <mxGeometry relative="1" as="geometry">
            <mxPoint as="offset" />
          </mxGeometry>
        </mxCell>
        <mxCell id="N71l-OULLyR_cf9wNzuh-153" value="" style="endArrow=classic;html=1;rounded=1;orthogonal=0;" parent="1" source="N71l-OULLyR_cf9wNzuh-146" target="N71l-OULLyR_cf9wNzuh-161" edge="1">
          <mxGeometry width="50" height="50" relative="1" as="geometry">
            <mxPoint x="1480" y="-290" as="sourcePoint" />
            <mxPoint x="1530" y="-340" as="targetPoint" />
          </mxGeometry>
        </mxCell>
        <mxCell id="N71l-OULLyR_cf9wNzuh-154" value="impl" style="edgeLabel;html=1;align=center;verticalAlign=middle;resizable=0;points=[];rounded=1;" parent="N71l-OULLyR_cf9wNzuh-153" vertex="1" connectable="0">
          <mxGeometry relative="1" as="geometry">
            <mxPoint as="offset" />
          </mxGeometry>
        </mxCell>
        <mxCell id="N71l-OULLyR_cf9wNzuh-155" value="" style="endArrow=classic;html=1;rounded=1;orthogonal=0;" parent="1" source="N71l-OULLyR_cf9wNzuh-149" target="N71l-OULLyR_cf9wNzuh-162" edge="1">
          <mxGeometry width="50" height="50" relative="1" as="geometry">
            <mxPoint x="1380" y="-252" as="sourcePoint" />
            <mxPoint x="1510" y="-208" as="targetPoint" />
          </mxGeometry>
        </mxCell>
        <mxCell id="N71l-OULLyR_cf9wNzuh-156" value="impl" style="edgeLabel;html=1;align=center;verticalAlign=middle;resizable=0;points=[];rounded=1;" parent="N71l-OULLyR_cf9wNzuh-155" vertex="1" connectable="0">
          <mxGeometry relative="1" as="geometry">
            <mxPoint as="offset" />
          </mxGeometry>
        </mxCell>
        <mxCell id="N71l-OULLyR_cf9wNzuh-157" value="" style="endArrow=classic;html=1;rounded=1;orthogonal=0;" parent="1" source="N71l-OULLyR_cf9wNzuh-146" target="N71l-OULLyR_cf9wNzuh-165" edge="1">
          <mxGeometry width="50" height="50" relative="1" as="geometry">
            <mxPoint x="1416" y="-310" as="sourcePoint" />
            <mxPoint x="1350" y="-360" as="targetPoint" />
          </mxGeometry>
        </mxCell>
        <mxCell id="N71l-OULLyR_cf9wNzuh-158" value="impl" style="edgeLabel;html=1;align=center;verticalAlign=middle;resizable=0;points=[];rounded=1;" parent="N71l-OULLyR_cf9wNzuh-157" vertex="1" connectable="0">
          <mxGeometry relative="1" as="geometry">
            <mxPoint as="offset" />
          </mxGeometry>
        </mxCell>
        <mxCell id="N71l-OULLyR_cf9wNzuh-159" value="" style="endArrow=classic;html=1;rounded=1;orthogonal=0;" parent="1" source="N71l-OULLyR_cf9wNzuh-149" target="N71l-OULLyR_cf9wNzuh-166" edge="1">
          <mxGeometry width="50" height="50" relative="1" as="geometry">
            <mxPoint x="1400" y="-370" as="sourcePoint" />
            <mxPoint x="1334" y="-420" as="targetPoint" />
          </mxGeometry>
        </mxCell>
        <mxCell id="N71l-OULLyR_cf9wNzuh-160" value="impl" style="edgeLabel;html=1;align=center;verticalAlign=middle;resizable=0;points=[];rounded=1;" parent="N71l-OULLyR_cf9wNzuh-159" vertex="1" connectable="0">
          <mxGeometry relative="1" as="geometry">
            <mxPoint as="offset" />
          </mxGeometry>
        </mxCell>
        <mxCell id="N71l-OULLyR_cf9wNzuh-161" value="&lt;div&gt;Line&lt;/div&gt;&lt;div&gt;Ops&lt;br&gt;&lt;/div&gt;" style="rounded=0;whiteSpace=wrap;html=1;fillColor=#fa6800;strokeColor=#C73500;fontColor=#000000;shape=parallelogram;fixedSize=1;perimeter=parallelogramPerimeter;" parent="1" vertex="1">
          <mxGeometry x="1170" y="-300" width="110" height="40" as="geometry" />
        </mxCell>
        <mxCell id="N71l-OULLyR_cf9wNzuh-162" value="&lt;div&gt;DirectedLine&lt;/div&gt;&lt;div&gt;Ops&lt;br&gt;&lt;/div&gt;" style="rounded=0;whiteSpace=wrap;html=1;fillColor=#fa6800;strokeColor=#C73500;fontColor=#000000;shape=parallelogram;fixedSize=1;perimeter=parallelogramPerimeter;" parent="1" vertex="1">
          <mxGeometry x="1160" y="-420" width="130" height="40" as="geometry" />
        </mxCell>
        <mxCell id="N71l-OULLyR_cf9wNzuh-163" value="" style="endArrow=classic;html=1;rounded=1;orthogonal=0;" parent="1" source="N71l-OULLyR_cf9wNzuh-162" target="N71l-OULLyR_cf9wNzuh-161" edge="1">
          <mxGeometry relative="1" as="geometry">
            <mxPoint x="1740" y="-530" as="sourcePoint" />
            <mxPoint x="1840" y="-530" as="targetPoint" />
          </mxGeometry>
        </mxCell>
        <mxCell id="N71l-OULLyR_cf9wNzuh-164" value="&lt;div&gt;Require&lt;/div&gt;&lt;div&gt;(simpler manipulation)&lt;br&gt;&lt;/div&gt;" style="edgeLabel;resizable=0;html=1;;align=center;verticalAlign=middle;container=0;rounded=1;" parent="N71l-OULLyR_cf9wNzuh-163" connectable="0" vertex="1">
          <mxGeometry relative="1" as="geometry">
            <mxPoint as="offset" />
          </mxGeometry>
        </mxCell>
        <mxCell id="N71l-OULLyR_cf9wNzuh-165" value="&lt;div&gt;Line&lt;/div&gt;&lt;div&gt;Constructors&lt;br&gt;&lt;/div&gt;" style="rounded=0;whiteSpace=wrap;html=1;fillColor=#fa6800;strokeColor=#C73500;fontColor=#000000;shape=parallelogram;fixedSize=1;perimeter=parallelogramPerimeter;" parent="1" vertex="1">
          <mxGeometry x="1505" y="-300" width="110" height="40" as="geometry" />
        </mxCell>
        <mxCell id="N71l-OULLyR_cf9wNzuh-166" value="&lt;div&gt;DirectedLine&lt;/div&gt;&lt;div&gt;Constructors&lt;br&gt;&lt;/div&gt;" style="rounded=0;whiteSpace=wrap;html=1;fillColor=#fa6800;strokeColor=#C73500;fontColor=#000000;shape=parallelogram;fixedSize=1;perimeter=parallelogramPerimeter;" parent="1" vertex="1">
          <mxGeometry x="1490" y="-420" width="140" height="40" as="geometry" />
        </mxCell>
        <mxCell id="N71l-OULLyR_cf9wNzuh-167" value="" style="endArrow=classic;html=1;rounded=1;orthogonal=0;" parent="1" source="N71l-OULLyR_cf9wNzuh-165" target="N71l-OULLyR_cf9wNzuh-166" edge="1">
          <mxGeometry relative="1" as="geometry">
            <mxPoint x="1442" y="-145" as="sourcePoint" />
            <mxPoint x="1288" y="-390" as="targetPoint" />
          </mxGeometry>
        </mxCell>
        <mxCell id="N71l-OULLyR_cf9wNzuh-168" value="&lt;div&gt;Require&lt;/div&gt;&lt;div&gt;(discard data)&lt;br&gt;&lt;/div&gt;" style="edgeLabel;resizable=0;html=1;;align=center;verticalAlign=middle;container=0;rounded=1;" parent="N71l-OULLyR_cf9wNzuh-167" connectable="0" vertex="1">
          <mxGeometry relative="1" as="geometry">
            <mxPoint as="offset" />
          </mxGeometry>
        </mxCell>
        <mxCell id="N71l-OULLyR_cf9wNzuh-169" value="" style="shape=flexArrow;endArrow=classic;html=1;rounded=0;width=38.095238095238095;endSize=15.978787878787879;endWidth=34.516594516594516;fillColor=#e51400;strokeColor=#B20000;shadow=1;orthogonal=0;" parent="1" edge="1">
          <mxGeometry width="50" height="50" relative="1" as="geometry">
            <mxPoint x="980" y="-360" as="sourcePoint" />
            <mxPoint x="1110" y="-360" as="targetPoint" />
          </mxGeometry>
        </mxCell>
        <mxCell id="N71l-OULLyR_cf9wNzuh-170" value="&lt;div&gt;Ignoring&lt;/div&gt;&lt;div&gt;Datatype&lt;br&gt;&lt;/div&gt;" style="edgeLabel;html=1;align=center;verticalAlign=middle;resizable=0;points=[];fontColor=#FFFFFF;labelBackgroundColor=none;" parent="N71l-OULLyR_cf9wNzuh-169" vertex="1" connectable="0">
          <mxGeometry relative="1" as="geometry">
            <mxPoint x="-25" as="offset" />
          </mxGeometry>
        </mxCell>
        <mxCell id="N71l-OULLyR_cf9wNzuh-176" value="asdf" style="swimlane;startSize=30;fillColor=#FFFFFF;fontColor=#000000;strokeColor=#FF0000;swimlaneFillColor=none;strokeWidth=8;perimeterSpacing=0;rounded=1;swimlaneLine=1;glass=0;shadow=1;arcSize=25;comic=0;enumerate=0;moveCells=0;autosize=0;fillStyle=auto;" parent="1" vertex="1">
          <mxGeometry x="220" y="-850" width="150" height="150" as="geometry">
            <mxRectangle x="60" y="135" width="50" height="40" as="alternateBounds" />
          </mxGeometry>
        </mxCell>
        <mxCell id="N71l-OULLyR_cf9wNzuh-198" value="Wrapped" style="swimlane;startSize=30;fillColor=#FFFFFF;fontColor=#000000;strokeColor=#FF0000;swimlaneFillColor=none;strokeWidth=8;perimeterSpacing=0;rounded=1;swimlaneLine=1;glass=0;shadow=1;arcSize=25;comic=0;enumerate=0;moveCells=0;autosize=0;fillStyle=auto;" parent="1" vertex="1">
          <mxGeometry x="1230" y="180" width="285" height="570" as="geometry">
            <mxRectangle x="60" y="135" width="50" height="40" as="alternateBounds" />
          </mxGeometry>
        </mxCell>
        <mxCell id="0TJrppLCOqJmz8Xq7RQ5-1" value="&lt;div&gt;DirectedLine&lt;/div&gt;&lt;div&gt;Cutting&lt;/div&gt;&lt;div&gt;GridSquare&lt;br&gt;&lt;/div&gt;" style="rounded=1;whiteSpace=wrap;html=1;fillColor=#1ba1e2;strokeColor=#006EAF;fontColor=#ffffff;" parent="N71l-OULLyR_cf9wNzuh-198" vertex="1">
          <mxGeometry x="105" y="270" width="100" height="50" as="geometry" />
        </mxCell>
        <mxCell id="0TJrppLCOqJmz8Xq7RQ5-2" value="&lt;div&gt;TwoPoints&lt;/div&gt;&lt;div&gt;OnDifferentFacesOf&lt;/div&gt;&lt;div&gt;GridSquare&lt;/div&gt;" style="rounded=1;whiteSpace=wrap;html=1;fillColor=#1ba1e2;strokeColor=#006EAF;fontColor=#ffffff;" parent="N71l-OULLyR_cf9wNzuh-198" vertex="1">
          <mxGeometry x="90" y="80" width="130" height="60" as="geometry" />
        </mxCell>
        <mxCell id="0TJrppLCOqJmz8Xq7RQ5-15" value="&lt;div&gt;HalfPlane&lt;/div&gt;&lt;div&gt;Cutting&lt;/div&gt;&lt;div&gt;GridSquare&lt;/div&gt;" style="rounded=1;whiteSpace=wrap;html=1;fillColor=#1ba1e2;strokeColor=#006EAF;fontColor=#ffffff;" parent="N71l-OULLyR_cf9wNzuh-198" vertex="1">
          <mxGeometry x="90" y="416.5" width="130" height="55" as="geometry" />
        </mxCell>
        <mxCell id="0TJrppLCOqJmz8Xq7RQ5-16" value="" style="endArrow=classic;dashed=1;html=1;dashPattern=1 3;strokeWidth=2;rounded=0;endFill=1;endSize=3;orthogonal=0;" parent="N71l-OULLyR_cf9wNzuh-198" source="0TJrppLCOqJmz8Xq7RQ5-2" target="0TJrppLCOqJmz8Xq7RQ5-1" edge="1">
          <mxGeometry width="50" height="50" relative="1" as="geometry">
            <mxPoint x="15" y="443.5" as="sourcePoint" />
            <mxPoint x="255" y="443.5" as="targetPoint" />
          </mxGeometry>
        </mxCell>
        <mxCell id="0TJrppLCOqJmz8Xq7RQ5-17" value="&lt;span style=&quot;color: rgb(38, 162, 105); font-family: Helvetica; font-size: 11px; font-style: normal; font-variant-ligatures: normal; font-variant-caps: normal; font-weight: 400; letter-spacing: normal; orphans: 2; text-align: center; text-indent: 0px; text-transform: none; widows: 2; word-spacing: 0px; -webkit-text-stroke-width: 0px; white-space: nowrap; background-color: rgb(255, 255, 255); text-decoration-thickness: initial; text-decoration-style: initial; text-decoration-color: initial; display: inline !important; float: none;&quot;&gt;abstraction&lt;/span&gt;" style="edgeLabel;html=1;align=center;verticalAlign=middle;resizable=0;points=[];" parent="0TJrppLCOqJmz8Xq7RQ5-16" vertex="1" connectable="0">
          <mxGeometry relative="1" as="geometry">
            <mxPoint as="offset" />
          </mxGeometry>
        </mxCell>
        <mxCell id="vzA0jvPMeC43cJMO_e1w-11" value="Relations Between Structs" style="shape=table;startSize=30;container=1;collapsible=1;childLayout=tableLayout;fixedRows=1;rowLines=0;fontStyle=1;align=center;resizeLast=1;html=1;rounded=1;shadow=0;gradientColor=none;swimlaneFillColor=default;strokeWidth=5;" parent="1" vertex="1">
          <mxGeometry x="750" y="-20" width="230" height="200" as="geometry" />
        </mxCell>
        <mxCell id="vzA0jvPMeC43cJMO_e1w-12" value="" style="shape=tableRow;horizontal=0;startSize=0;swimlaneHead=0;swimlaneBody=0;fillColor=none;collapsible=0;dropTarget=0;points=[[0,0.5],[1,0.5]];portConstraint=eastwest;top=0;left=0;right=0;bottom=1;" parent="vzA0jvPMeC43cJMO_e1w-11" vertex="1">
          <mxGeometry y="30" width="230" height="30" as="geometry" />
        </mxCell>
        <mxCell id="vzA0jvPMeC43cJMO_e1w-13" value="Name" style="shape=partialRectangle;connectable=0;fillColor=none;top=0;left=0;bottom=0;right=0;fontStyle=1;overflow=hidden;whiteSpace=wrap;html=1;" parent="vzA0jvPMeC43cJMO_e1w-12" vertex="1">
          <mxGeometry width="70" height="30" as="geometry">
            <mxRectangle width="70" height="30" as="alternateBounds" />
          </mxGeometry>
        </mxCell>
        <mxCell id="vzA0jvPMeC43cJMO_e1w-14" value="Meaning" style="shape=partialRectangle;connectable=0;fillColor=none;top=0;left=0;bottom=0;right=0;align=left;spacingLeft=6;fontStyle=5;overflow=hidden;whiteSpace=wrap;html=1;strokeColor=default;" parent="vzA0jvPMeC43cJMO_e1w-12" vertex="1">
          <mxGeometry x="70" width="160" height="30" as="geometry">
            <mxRectangle width="160" height="30" as="alternateBounds" />
          </mxGeometry>
        </mxCell>
        <mxCell id="vzA0jvPMeC43cJMO_e1w-15" value="" style="shape=tableRow;horizontal=0;startSize=0;swimlaneHead=0;swimlaneBody=0;fillColor=none;collapsible=0;dropTarget=0;points=[[0,0.5],[1,0.5]];portConstraint=eastwest;top=0;left=0;right=0;bottom=0;" parent="vzA0jvPMeC43cJMO_e1w-11" vertex="1">
          <mxGeometry y="60" width="230" height="30" as="geometry" />
        </mxCell>
        <mxCell id="vzA0jvPMeC43cJMO_e1w-16" value="&lt;span style=&quot;color: rgb(165, 29, 45); font-family: Helvetica; font-size: 11px; font-style: normal; font-variant-ligatures: normal; font-variant-caps: normal; font-weight: 400; letter-spacing: normal; orphans: 2; text-align: center; text-indent: 0px; text-transform: none; widows: 2; word-spacing: 0px; -webkit-text-stroke-width: 0px; white-space: nowrap; background-color: rgb(255, 255, 255); text-decoration-thickness: initial; text-decoration-style: initial; text-decoration-color: initial; display: inline !important; float: none;&quot;&gt;refinement&lt;/span&gt;" style="shape=partialRectangle;connectable=0;fillColor=none;top=0;left=0;bottom=0;right=0;editable=1;overflow=hidden;whiteSpace=wrap;html=1;" parent="vzA0jvPMeC43cJMO_e1w-15" vertex="1">
          <mxGeometry width="70" height="30" as="geometry">
            <mxRectangle width="70" height="30" as="alternateBounds" />
          </mxGeometry>
        </mxCell>
        <mxCell id="vzA0jvPMeC43cJMO_e1w-17" value="&lt;span style=&quot;text-align: center;&quot;&gt;Restrict contents&lt;/span&gt;" style="shape=partialRectangle;connectable=0;fillColor=none;top=0;left=0;bottom=0;right=0;align=left;spacingLeft=6;overflow=hidden;whiteSpace=wrap;html=1;strokeColor=default;" parent="vzA0jvPMeC43cJMO_e1w-15" vertex="1">
          <mxGeometry x="70" width="160" height="30" as="geometry">
            <mxRectangle width="160" height="30" as="alternateBounds" />
          </mxGeometry>
        </mxCell>
        <mxCell id="vzA0jvPMeC43cJMO_e1w-18" value="" style="shape=tableRow;horizontal=0;startSize=0;swimlaneHead=0;swimlaneBody=0;fillColor=none;collapsible=0;dropTarget=0;points=[[0,0.5],[1,0.5]];portConstraint=eastwest;top=0;left=0;right=0;bottom=0;" parent="vzA0jvPMeC43cJMO_e1w-11" vertex="1">
          <mxGeometry y="90" width="230" height="30" as="geometry" />
        </mxCell>
        <mxCell id="vzA0jvPMeC43cJMO_e1w-19" value="&lt;span style=&quot;color: rgb(38, 162, 105); font-size: 11px; text-wrap: nowrap; background-color: rgb(255, 255, 255);&quot;&gt;abstraction&lt;/span&gt;" style="shape=partialRectangle;connectable=0;fillColor=none;top=0;left=0;bottom=0;right=0;editable=1;overflow=hidden;whiteSpace=wrap;html=1;" parent="vzA0jvPMeC43cJMO_e1w-18" vertex="1">
          <mxGeometry width="70" height="30" as="geometry">
            <mxRectangle width="70" height="30" as="alternateBounds" />
          </mxGeometry>
        </mxCell>
        <mxCell id="vzA0jvPMeC43cJMO_e1w-20" value="&lt;span style=&quot;text-align: center;&quot;&gt;Restrict visibility of contents&lt;/span&gt;" style="shape=partialRectangle;connectable=0;fillColor=none;top=0;left=0;bottom=0;right=0;align=left;spacingLeft=6;overflow=hidden;whiteSpace=wrap;html=1;" parent="vzA0jvPMeC43cJMO_e1w-18" vertex="1">
          <mxGeometry x="70" width="160" height="30" as="geometry">
            <mxRectangle width="160" height="30" as="alternateBounds" />
          </mxGeometry>
        </mxCell>
        <mxCell id="vzA0jvPMeC43cJMO_e1w-21" value="" style="shape=tableRow;horizontal=0;startSize=0;swimlaneHead=0;swimlaneBody=0;fillColor=none;collapsible=0;dropTarget=0;points=[[0,0.5],[1,0.5]];portConstraint=eastwest;top=0;left=0;right=0;bottom=0;" parent="vzA0jvPMeC43cJMO_e1w-11" vertex="1">
          <mxGeometry y="120" width="230" height="30" as="geometry" />
        </mxCell>
        <mxCell id="vzA0jvPMeC43cJMO_e1w-22" value="&lt;span style=&quot;color: rgb(26, 95, 180); font-family: Helvetica; font-size: 11px; font-style: normal; font-variant-ligatures: normal; font-variant-caps: normal; font-weight: 400; letter-spacing: normal; orphans: 2; text-align: center; text-indent: 0px; text-transform: none; widows: 2; word-spacing: 0px; -webkit-text-stroke-width: 0px; white-space: nowrap; background-color: rgb(255, 255, 255); text-decoration-thickness: initial; text-decoration-style: initial; text-decoration-color: initial; display: inline !important; float: none;&quot;&gt;semantic&lt;/span&gt;" style="shape=partialRectangle;connectable=0;fillColor=none;top=0;left=0;bottom=0;right=0;editable=1;overflow=hidden;whiteSpace=wrap;html=1;" parent="vzA0jvPMeC43cJMO_e1w-21" vertex="1">
          <mxGeometry width="70" height="30" as="geometry">
            <mxRectangle width="70" height="30" as="alternateBounds" />
          </mxGeometry>
        </mxCell>
        <mxCell id="vzA0jvPMeC43cJMO_e1w-23" value="&lt;span style=&quot;text-align: center;&quot;&gt;New meaning&lt;/span&gt;" style="shape=partialRectangle;connectable=0;fillColor=none;top=0;left=0;bottom=0;right=0;align=left;spacingLeft=6;overflow=hidden;whiteSpace=wrap;html=1;" parent="vzA0jvPMeC43cJMO_e1w-21" vertex="1">
          <mxGeometry x="70" width="160" height="30" as="geometry">
            <mxRectangle width="160" height="30" as="alternateBounds" />
          </mxGeometry>
        </mxCell>
        <mxCell id="vzA0jvPMeC43cJMO_e1w-24" style="shape=tableRow;horizontal=0;startSize=0;swimlaneHead=0;swimlaneBody=0;fillColor=none;collapsible=0;dropTarget=0;points=[[0,0.5],[1,0.5]];portConstraint=eastwest;top=0;left=0;right=0;bottom=0;" parent="vzA0jvPMeC43cJMO_e1w-11" vertex="1">
          <mxGeometry y="150" width="230" height="50" as="geometry" />
        </mxCell>
        <mxCell id="vzA0jvPMeC43cJMO_e1w-25" value="wrapped&lt;div&gt;(tentative)&lt;/div&gt;" style="shape=partialRectangle;connectable=0;fillColor=none;top=0;left=0;bottom=0;right=0;editable=1;overflow=hidden;whiteSpace=wrap;html=1;" parent="vzA0jvPMeC43cJMO_e1w-24" vertex="1">
          <mxGeometry width="70" height="50" as="geometry">
            <mxRectangle width="70" height="50" as="alternateBounds" />
          </mxGeometry>
        </mxCell>
        <mxCell id="vzA0jvPMeC43cJMO_e1w-26" value="Add data?" style="shape=partialRectangle;connectable=0;fillColor=none;top=0;left=0;bottom=0;right=0;align=left;spacingLeft=6;overflow=hidden;whiteSpace=wrap;html=1;" parent="vzA0jvPMeC43cJMO_e1w-24" vertex="1">
          <mxGeometry x="70" width="160" height="50" as="geometry">
            <mxRectangle width="160" height="50" as="alternateBounds" />
          </mxGeometry>
        </mxCell>
        <mxCell id="vzA0jvPMeC43cJMO_e1w-84" value="Operation and Constructor Trait Relations When &lt;font color=&quot;#a51d2d&quot;&gt;Refined&lt;/font&gt;" style="swimlane;whiteSpace=wrap;html=1;" parent="1" vertex="1">
          <mxGeometry x="60" y="630" width="560" height="300" as="geometry">
            <mxRectangle x="70" y="170" width="360" height="30" as="alternateBounds" />
          </mxGeometry>
        </mxCell>
        <mxCell id="vzA0jvPMeC43cJMO_e1w-85" value="&lt;div&gt;Line&lt;/div&gt;&lt;div&gt;Cutting&lt;/div&gt;&lt;div&gt;CenteredUnitSquare&lt;/div&gt;" style="rounded=1;whiteSpace=wrap;html=1;fillColor=#1ba1e2;strokeColor=#006EAF;fontColor=#ffffff;" parent="vzA0jvPMeC43cJMO_e1w-84" vertex="1">
          <mxGeometry x="215" y="195" width="130" height="50" as="geometry" />
        </mxCell>
        <mxCell id="vzA0jvPMeC43cJMO_e1w-86" value="Line" style="rounded=1;whiteSpace=wrap;html=1;fillColor=#1ba1e2;strokeColor=#006EAF;fontColor=#ffffff;" parent="vzA0jvPMeC43cJMO_e1w-84" vertex="1">
          <mxGeometry x="220" y="80" width="120" height="40" as="geometry" />
        </mxCell>
        <mxCell id="vzA0jvPMeC43cJMO_e1w-87" value="" style="endArrow=classic;html=1;rounded=1;orthogonal=0;" parent="vzA0jvPMeC43cJMO_e1w-84" source="vzA0jvPMeC43cJMO_e1w-85" target="vzA0jvPMeC43cJMO_e1w-91" edge="1">
          <mxGeometry width="50" height="50" relative="1" as="geometry">
            <mxPoint x="270" y="368" as="sourcePoint" />
            <mxPoint x="400" y="412" as="targetPoint" />
          </mxGeometry>
        </mxCell>
        <mxCell id="vzA0jvPMeC43cJMO_e1w-88" value="impl" style="edgeLabel;html=1;align=center;verticalAlign=middle;resizable=0;points=[];rounded=1;" parent="vzA0jvPMeC43cJMO_e1w-87" vertex="1" connectable="0">
          <mxGeometry relative="1" as="geometry">
            <mxPoint as="offset" />
          </mxGeometry>
        </mxCell>
        <mxCell id="vzA0jvPMeC43cJMO_e1w-89" value="" style="endArrow=classic;html=1;rounded=1;orthogonal=0;" parent="vzA0jvPMeC43cJMO_e1w-84" source="vzA0jvPMeC43cJMO_e1w-85" target="vzA0jvPMeC43cJMO_e1w-92" edge="1">
          <mxGeometry width="50" height="50" relative="1" as="geometry">
            <mxPoint x="290" y="250" as="sourcePoint" />
            <mxPoint x="224" y="200" as="targetPoint" />
          </mxGeometry>
        </mxCell>
        <mxCell id="vzA0jvPMeC43cJMO_e1w-90" value="impl" style="edgeLabel;html=1;align=center;verticalAlign=middle;resizable=0;points=[];rounded=1;" parent="vzA0jvPMeC43cJMO_e1w-89" vertex="1" connectable="0">
          <mxGeometry relative="1" as="geometry">
            <mxPoint as="offset" />
          </mxGeometry>
        </mxCell>
        <mxCell id="vzA0jvPMeC43cJMO_e1w-91" value="&lt;div&gt;OperationsFor&lt;/div&gt;&lt;div&gt;...&lt;/div&gt;" style="rounded=0;whiteSpace=wrap;html=1;fillColor=#fa6800;strokeColor=#C73500;fontColor=#000000;shape=parallelogram;fixedSize=1;perimeter=parallelogramPerimeter;" parent="vzA0jvPMeC43cJMO_e1w-84" vertex="1">
          <mxGeometry x="30" y="200" width="130" height="40" as="geometry" />
        </mxCell>
        <mxCell id="vzA0jvPMeC43cJMO_e1w-92" value="&lt;div&gt;ConstructorsFor&lt;/div&gt;&lt;div&gt;...&lt;/div&gt;" style="rounded=0;whiteSpace=wrap;html=1;fillColor=#fa6800;strokeColor=#C73500;fontColor=#000000;shape=parallelogram;fixedSize=1;perimeter=parallelogramPerimeter;" parent="vzA0jvPMeC43cJMO_e1w-84" vertex="1">
          <mxGeometry x="395" y="200" width="140" height="40" as="geometry" />
        </mxCell>
        <mxCell id="vzA0jvPMeC43cJMO_e1w-93" value="&lt;div&gt;OperationsFor&lt;/div&gt;&lt;div&gt;Line&lt;/div&gt;" style="rounded=0;whiteSpace=wrap;html=1;fillColor=#fa6800;strokeColor=#C73500;fontColor=#000000;shape=parallelogram;fixedSize=1;perimeter=parallelogramPerimeter;" parent="vzA0jvPMeC43cJMO_e1w-84" vertex="1">
          <mxGeometry x="20" y="80" width="150" height="40" as="geometry" />
        </mxCell>
        <mxCell id="vzA0jvPMeC43cJMO_e1w-94" value="&lt;div&gt;ConstructorsFor&lt;/div&gt;&lt;div&gt;Line&lt;/div&gt;" style="rounded=0;whiteSpace=wrap;html=1;fillColor=#fa6800;strokeColor=#C73500;fontColor=#000000;shape=parallelogram;fixedSize=1;perimeter=parallelogramPerimeter;" parent="vzA0jvPMeC43cJMO_e1w-84" vertex="1">
          <mxGeometry x="390" y="80" width="150" height="40" as="geometry" />
        </mxCell>
        <mxCell id="vzA0jvPMeC43cJMO_e1w-95" value="" style="endArrow=classic;html=1;rounded=1;orthogonal=0;" parent="vzA0jvPMeC43cJMO_e1w-84" source="vzA0jvPMeC43cJMO_e1w-91" target="vzA0jvPMeC43cJMO_e1w-93" edge="1">
          <mxGeometry relative="1" as="geometry">
            <mxPoint x="30" y="140" as="sourcePoint" />
            <mxPoint x="30" y="220" as="targetPoint" />
          </mxGeometry>
        </mxCell>
        <mxCell id="vzA0jvPMeC43cJMO_e1w-96" value="&lt;div&gt;Require&lt;/div&gt;&lt;div&gt;(same operations)&lt;/div&gt;&lt;div&gt;(may be failable)&lt;/div&gt;" style="edgeLabel;resizable=0;html=1;;align=center;verticalAlign=middle;container=0;rounded=1;" parent="vzA0jvPMeC43cJMO_e1w-95" connectable="0" vertex="1">
          <mxGeometry relative="1" as="geometry">
            <mxPoint as="offset" />
          </mxGeometry>
        </mxCell>
        <mxCell id="vzA0jvPMeC43cJMO_e1w-97" value="" style="endArrow=classic;html=1;rounded=1;orthogonal=0;" parent="vzA0jvPMeC43cJMO_e1w-84" source="vzA0jvPMeC43cJMO_e1w-92" target="vzA0jvPMeC43cJMO_e1w-94" edge="1">
          <mxGeometry relative="1" as="geometry">
            <mxPoint x="625" y="190" as="sourcePoint" />
            <mxPoint x="625" y="110" as="targetPoint" />
          </mxGeometry>
        </mxCell>
        <mxCell id="vzA0jvPMeC43cJMO_e1w-98" value="&lt;div&gt;Require&lt;/div&gt;&lt;div&gt;(same operations)&lt;/div&gt;&lt;div&gt;(may be failable)&lt;/div&gt;" style="edgeLabel;resizable=0;html=1;;align=center;verticalAlign=middle;container=0;rounded=1;" parent="vzA0jvPMeC43cJMO_e1w-97" connectable="0" vertex="1">
          <mxGeometry relative="1" as="geometry">
            <mxPoint as="offset" />
          </mxGeometry>
        </mxCell>
        <mxCell id="vzA0jvPMeC43cJMO_e1w-99" value="" style="endArrow=classic;html=1;rounded=1;orthogonal=0;" parent="vzA0jvPMeC43cJMO_e1w-84" source="vzA0jvPMeC43cJMO_e1w-86" target="vzA0jvPMeC43cJMO_e1w-94" edge="1">
          <mxGeometry width="50" height="50" relative="1" as="geometry">
            <mxPoint x="318" y="330" as="sourcePoint" />
            <mxPoint x="432" y="250" as="targetPoint" />
          </mxGeometry>
        </mxCell>
        <mxCell id="vzA0jvPMeC43cJMO_e1w-100" value="impl" style="edgeLabel;html=1;align=center;verticalAlign=middle;resizable=0;points=[];rounded=1;" parent="vzA0jvPMeC43cJMO_e1w-99" vertex="1" connectable="0">
          <mxGeometry relative="1" as="geometry">
            <mxPoint as="offset" />
          </mxGeometry>
        </mxCell>
        <mxCell id="vzA0jvPMeC43cJMO_e1w-101" value="" style="endArrow=classic;html=1;rounded=1;orthogonal=0;" parent="vzA0jvPMeC43cJMO_e1w-84" source="vzA0jvPMeC43cJMO_e1w-86" target="vzA0jvPMeC43cJMO_e1w-93" edge="1">
          <mxGeometry width="50" height="50" relative="1" as="geometry">
            <mxPoint x="240" y="20" as="sourcePoint" />
            <mxPoint x="170" y="20" as="targetPoint" />
          </mxGeometry>
        </mxCell>
        <mxCell id="vzA0jvPMeC43cJMO_e1w-102" value="impl" style="edgeLabel;html=1;align=center;verticalAlign=middle;resizable=0;points=[];rounded=1;" parent="vzA0jvPMeC43cJMO_e1w-101" vertex="1" connectable="0">
          <mxGeometry relative="1" as="geometry">
            <mxPoint as="offset" />
          </mxGeometry>
        </mxCell>
        <mxCell id="vzA0jvPMeC43cJMO_e1w-107" value="" style="endArrow=none;dashed=1;html=1;rounded=0;exitX=0.5;exitY=0;exitDx=0;exitDy=0;orthogonal=0;" parent="vzA0jvPMeC43cJMO_e1w-84" source="vzA0jvPMeC43cJMO_e1w-86" edge="1">
          <mxGeometry width="50" height="50" relative="1" as="geometry">
            <mxPoint x="300" y="40" as="sourcePoint" />
            <mxPoint x="280" y="40" as="targetPoint" />
          </mxGeometry>
        </mxCell>
        <mxCell id="vzA0jvPMeC43cJMO_e1w-108" value="" style="endArrow=none;dashed=1;html=1;rounded=0;orthogonal=0;" parent="vzA0jvPMeC43cJMO_e1w-84" target="vzA0jvPMeC43cJMO_e1w-85" edge="1">
          <mxGeometry width="50" height="50" relative="1" as="geometry">
            <mxPoint x="280" y="280" as="sourcePoint" />
            <mxPoint x="290" y="290" as="targetPoint" />
          </mxGeometry>
        </mxCell>
        <mxCell id="vzA0jvPMeC43cJMO_e1w-109" value="" style="endArrow=classic;dashed=1;html=1;dashPattern=1 3;strokeWidth=2;rounded=0;endFill=1;endSize=3;orthogonal=0;" parent="vzA0jvPMeC43cJMO_e1w-84" source="vzA0jvPMeC43cJMO_e1w-86" target="vzA0jvPMeC43cJMO_e1w-85" edge="1">
          <mxGeometry width="50" height="50" relative="1" as="geometry">
            <mxPoint x="230" y="154" as="sourcePoint" />
            <mxPoint x="230" y="200" as="targetPoint" />
          </mxGeometry>
        </mxCell>
        <mxCell id="vzA0jvPMeC43cJMO_e1w-110" value="&lt;span style=&quot;color: rgb(165, 29, 45); font-family: Helvetica; font-size: 11px; font-style: normal; font-variant-ligatures: normal; font-variant-caps: normal; font-weight: 400; letter-spacing: normal; orphans: 2; text-align: center; text-indent: 0px; text-transform: none; widows: 2; word-spacing: 0px; -webkit-text-stroke-width: 0px; white-space: nowrap; background-color: rgb(255, 255, 255); text-decoration-thickness: initial; text-decoration-style: initial; text-decoration-color: initial; display: inline !important; float: none;&quot;&gt;refinement&lt;/span&gt;" style="edgeLabel;html=1;align=center;verticalAlign=middle;resizable=0;points=[];" parent="vzA0jvPMeC43cJMO_e1w-109" vertex="1" connectable="0">
          <mxGeometry relative="1" as="geometry">
            <mxPoint as="offset" />
          </mxGeometry>
        </mxCell>
        <mxCell id="vCSZwzF-COuYglUwFIWC-1" value="" style="endArrow=classic;dashed=1;html=1;dashPattern=1 3;strokeWidth=2;rounded=0;endFill=1;endSize=3;orthogonal=0;" parent="1" source="8NO0AHSbTcHH3xZStWIT-39" target="0TJrppLCOqJmz8Xq7RQ5-2" edge="1">
          <mxGeometry width="50" height="50" relative="1" as="geometry">
            <mxPoint x="1050" y="211" as="sourcePoint" />
            <mxPoint x="1180" y="210" as="targetPoint" />
            <Array as="points" />
          </mxGeometry>
        </mxCell>
        <mxCell id="vCSZwzF-COuYglUwFIWC-2" value="&lt;div&gt;&lt;font color=&quot;#a51d2d&quot;&gt;refinement&lt;/font&gt;&lt;br&gt;&lt;/div&gt;" style="edgeLabel;html=1;align=center;verticalAlign=middle;resizable=0;points=[];" parent="vCSZwzF-COuYglUwFIWC-1" vertex="1" connectable="0">
          <mxGeometry relative="1" as="geometry">
            <mxPoint as="offset" />
          </mxGeometry>
        </mxCell>
        <mxCell id="vCSZwzF-COuYglUwFIWC-3" value="" style="endArrow=classic;dashed=1;html=1;dashPattern=1 3;strokeWidth=2;rounded=0;endFill=1;endSize=3;orthogonal=0;" parent="1" source="8NO0AHSbTcHH3xZStWIT-38" target="0TJrppLCOqJmz8Xq7RQ5-1" edge="1">
          <mxGeometry width="50" height="50" relative="1" as="geometry">
            <mxPoint x="941" y="284" as="sourcePoint" />
            <mxPoint x="1360" y="243" as="targetPoint" />
            <Array as="points" />
          </mxGeometry>
        </mxCell>
        <mxCell id="vCSZwzF-COuYglUwFIWC-4" value="&lt;div&gt;&lt;font color=&quot;#a51d2d&quot;&gt;refinement&lt;/font&gt;&lt;br&gt;&lt;/div&gt;" style="edgeLabel;html=1;align=center;verticalAlign=middle;resizable=0;points=[];" parent="vCSZwzF-COuYglUwFIWC-3" vertex="1" connectable="0">
          <mxGeometry relative="1" as="geometry">
            <mxPoint x="-102" y="-5" as="offset" />
          </mxGeometry>
        </mxCell>
        <mxCell id="vCSZwzF-COuYglUwFIWC-5" value="" style="endArrow=classic;dashed=1;html=1;dashPattern=1 3;strokeWidth=2;rounded=0;endFill=1;endSize=3;orthogonal=0;" parent="1" source="8NO0AHSbTcHH3xZStWIT-42" target="0TJrppLCOqJmz8Xq7RQ5-15" edge="1">
          <mxGeometry width="50" height="50" relative="1" as="geometry">
            <mxPoint x="929" y="387" as="sourcePoint" />
            <mxPoint x="1375" y="343" as="targetPoint" />
            <Array as="points" />
          </mxGeometry>
        </mxCell>
        <mxCell id="vCSZwzF-COuYglUwFIWC-6" value="&lt;div&gt;&lt;font color=&quot;#a51d2d&quot;&gt;refinement&lt;/font&gt;&lt;br&gt;&lt;/div&gt;" style="edgeLabel;html=1;align=center;verticalAlign=middle;resizable=0;points=[];" parent="vCSZwzF-COuYglUwFIWC-5" vertex="1" connectable="0">
          <mxGeometry relative="1" as="geometry">
            <mxPoint x="-105" y="-5" as="offset" />
          </mxGeometry>
        </mxCell>
        <mxCell id="94iwUXyGh3kdDj7jn64L-1" value="Direction" style="rounded=1;whiteSpace=wrap;html=1;fillColor=#1ba1e2;strokeColor=#006EAF;fontColor=#ffffff;" vertex="1" parent="1">
          <mxGeometry x="680" y="570" width="70" height="30" as="geometry" />
        </mxCell>
        <mxCell id="94iwUXyGh3kdDj7jn64L-2" value="" style="endArrow=classic;dashed=1;html=1;dashPattern=1 3;strokeWidth=2;rounded=0;endFill=1;endSize=3;orthogonal=0;" edge="1" parent="1" source="8NO0AHSbTcHH3xZStWIT-38" target="94iwUXyGh3kdDj7jn64L-1">
          <mxGeometry width="50" height="50" relative="1" as="geometry">
            <mxPoint x="750" y="339" as="sourcePoint" />
            <mxPoint x="750" y="460" as="targetPoint" />
          </mxGeometry>
        </mxCell>
        <mxCell id="94iwUXyGh3kdDj7jn64L-3" value="&lt;span style=&quot;color: rgb(38, 162, 105); font-family: Helvetica; font-size: 11px; font-style: normal; font-variant-ligatures: normal; font-variant-caps: normal; font-weight: 400; letter-spacing: normal; orphans: 2; text-align: center; text-indent: 0px; text-transform: none; widows: 2; word-spacing: 0px; -webkit-text-stroke-width: 0px; white-space: nowrap; background-color: rgb(255, 255, 255); text-decoration-thickness: initial; text-decoration-style: initial; text-decoration-color: initial; display: inline !important; float: none;&quot;&gt;abstraction&lt;/span&gt;" style="edgeLabel;html=1;align=center;verticalAlign=middle;resizable=0;points=[];" vertex="1" connectable="0" parent="94iwUXyGh3kdDj7jn64L-2">
          <mxGeometry relative="1" as="geometry">
            <mxPoint as="offset" />
          </mxGeometry>
        </mxCell>
      </root>
    </mxGraphModel>
  </diagram>
</mxfile>
